<?xml version="1.0" standalone="no"?>
<!DOCTYPE svg PUBLIC "-//W3C//DTD SVG 20010904//EN"
 "http://www.w3.org/TR/2001/REC-SVG-20010904/DTD/svg10.dtd">
<svg version="1.0" xmlns="http://www.w3.org/2000/svg"
 width="785.000000pt" height="532.000000pt" viewBox="0 0 785.000000 532.000000"
 preserveAspectRatio="xMidYMid meet">

<g transform="translate(0.000000,532.000000) scale(0.100000,-0.100000)"
fill="#000000" stroke="none">
<path d="M4003 4295 c4 -19 -1 -20 -93 -19 -53 0 -101 4 -106 7 -28 17 -33
-13 -35 -193 l-2 -185 141 -3 c140 -3 141 -2 144 20 2 13 1 97 -2 186 -3 90
-2 166 2 168 4 3 5 11 2 19 -4 8 -10 12 -15 9 -5 -3 -7 -10 -4 -15 4 -5 2 -9
-4 -9 -5 0 -15 8 -21 18 -10 15 -11 15 -7 -3z"/>
<path d="M4656 4288 c-10 -6 -63 -8 -124 -6 l-107 4 1 -272 c2 -265 2 -274 25
-321 34 -69 94 -125 162 -151 33 -12 70 -22 83 -22 l24 0 0 123 c0 68 -3 239
-7 381 -5 222 -8 258 -22 266 -10 5 -24 4 -35 -2z m14 -12 c0 -2 -7 -7 -16
-10 -8 -3 -12 -2 -9 4 6 10 25 14 25 6z"/>
<path d="M3270 3805 c-101 -20 -177 -61 -251 -135 -78 -78 -118 -155 -133
-257 -27 -193 54 -374 214 -475 103 -65 132 -71 368 -76 l213 -4 -3 149 -3
148 -185 3 c-209 4 -232 10 -284 75 -28 35 -31 46 -31 106 0 59 4 72 29 105
53 70 79 75 351 76 207 1 248 3 295 19 106 36 200 150 200 244 l0 37 -357 -1
c-250 -1 -378 -5 -423 -14z"/>
<path d="M4807 3813 c-4 -3 -7 -71 -7 -150 l0 -143 185 0 c166 0 190 -2 225
-20 114 -58 133 -209 38 -297 -41 -39 -71 -43 -296 -43 -240 0 -324 -12 -390
-53 -69 -44 -132 -145 -132 -213 l0 -35 398 3 c447 4 439 3 562 84 134 87 210
230 210 394 0 133 -43 233 -140 330 -117 118 -219 150 -484 150 -89 0 -166 -3
-169 -7z"/>
<path d="M7785 3580 c-3 -5 -1 -10 4 -10 6 0 11 5 11 10 0 6 -2 10 -4 10 -3 0
-8 -4 -11 -10z"/>
<path d="M3775 2738 c-4 -10 -5 -108 -3 -220 l4 -203 33 -69 c68 -139 208
-243 359 -266 204 -32 411 77 504 267 l33 68 3 218 c4 209 3 218 -15 210 -10
-5 -48 -9 -85 -9 -38 1 -68 -1 -68 -4 0 -14 -51 -8 -57 6 -6 15 -8 15 -20 -2
-9 -12 -13 -14 -13 -4 0 9 -3 10 -9 5 -5 -6 -11 -82 -13 -170 -5 -175 -12
-202 -69 -249 -30 -26 -86 -46 -127 -46 -31 0 -92 27 -120 53 -51 47 -56 71
-60 254 -3 123 -7 171 -15 166 -13 -8 -32 -9 -151 -13 -66 -2 -90 1 -97 11 -6
11 -9 10 -14 -3z"/>
<path d="M3293 1813 c10 -55 34 -138 44 -158 6 -11 14 -39 18 -62 8 -53 25
-67 70 -59 44 9 40 0 104 223 26 89 26 83 -3 83 -37 0 -42 -11 -86 -177 -6
-24 -15 -43 -19 -43 -9 0 -61 154 -61 181 0 22 -21 39 -48 39 -21 0 -24 -4
-19 -27z"/>
<path d="M3645 1827 c-16 -12 -18 -30 -19 -136 -1 -118 0 -124 23 -142 18 -15
39 -19 97 -19 54 0 74 4 74 13 0 22 -22 37 -54 37 -61 0 -76 10 -76 46 0 33 1
34 44 34 27 0 48 6 56 15 19 22 2 35 -51 38 -43 3 -44 4 -44 38 0 34 1 34 50
39 57 6 75 15 75 36 0 19 -148 20 -175 1z"/>
<path d="M3932 1824 c-21 -14 -22 -22 -22 -150 0 -112 3 -136 15 -141 28 -10
55 26 55 74 0 58 20 57 61 -4 39 -59 56 -73 86 -73 30 0 29 6 -13 69 -36 54
-37 54 -16 70 55 42 47 132 -14 157 -45 19 -124 18 -152 -2z m128 -48 c19 -24
8 -59 -23 -74 -43 -21 -57 -10 -57 43 0 44 0 45 34 45 18 0 39 -7 46 -14z"/>
<path d="M4200 1821 c0 -22 13 -33 44 -36 11 -1 24 -3 28 -4 4 0 9 -56 10
-123 2 -100 6 -123 18 -125 37 -7 45 13 50 133 l5 118 33 2 c42 3 49 10 36 32
-9 14 -30 18 -118 20 -100 3 -106 2 -106 -17z"/>
<path d="M4510 1830 c-12 -7 -15 -35 -15 -139 0 -157 2 -160 111 -161 78 0 88
4 73 31 -6 13 -21 19 -42 19 -62 0 -77 9 -77 46 0 33 1 34 44 34 76 0 89 48
15 54 -19 2 -40 4 -46 5 -8 0 -13 15 -13 36 l0 35 48 0 c48 0 72 12 72 37 0
16 -146 18 -170 3z"/>
<path d="M4770 1833 c0 -3 16 -34 35 -69 19 -34 35 -67 35 -72 0 -6 -18 -42
-40 -81 -22 -39 -40 -73 -40 -76 0 -3 10 -5 23 -5 29 0 59 28 77 69 7 17 16
31 21 31 4 0 20 -20 35 -45 26 -44 66 -68 84 -49 5 5 -9 38 -31 74 -21 36 -39
71 -39 78 0 8 16 41 35 73 19 33 35 64 35 70 0 20 -50 8 -67 -16 -10 -14 -25
-36 -34 -47 l-16 -22 -16 31 c-23 44 -45 63 -73 63 -13 0 -24 -3 -24 -7z"/>
<path d="M2353 1214 c-52 -12 -84 -104 -47 -135 10 -8 40 -25 68 -39 86 -42
67 -99 -27 -85 -34 5 -46 3 -57 -10 -12 -15 -12 -19 5 -31 25 -18 118 -18 154
1 33 17 56 64 46 97 -9 27 -34 58 -48 58 -6 0 -30 9 -54 21 -75 36 -46 84 44
72 35 -5 41 -2 46 16 3 11 1 23 -4 26 -13 9 -101 14 -126 9z"/>
<path d="M3250 1202 c-46 -23 -70 -72 -70 -145 0 -111 49 -161 153 -155 48 3
52 5 52 28 0 23 -3 25 -38 23 -22 -2 -48 2 -59 8 -30 16 -49 72 -42 120 10 62
32 82 90 83 39 1 49 5 52 20 2 10 -2 22 -10 27 -22 15 -91 10 -128 -9z"/>
<path d="M5670 1214 c-73 -26 -90 -56 -90 -154 0 -80 15 -117 60 -144 58 -34
161 -10 189 43 6 11 14 46 17 78 7 71 -11 128 -47 156 -27 19 -100 31 -129 21z
m81 -63 c21 -17 24 -28 24 -89 0 -78 -19 -112 -62 -112 -44 0 -63 33 -63 108
0 68 10 94 40 105 27 10 37 7 61 -12z"/>
<path d="M6002 1209 c-24 -7 -37 -19 -48 -44 -21 -51 -1 -95 52 -114 57 -19
84 -39 84 -61 0 -28 -18 -35 -85 -35 -54 0 -60 -2 -63 -21 -4 -25 19 -34 91
-34 52 0 101 20 111 45 10 28 7 80 -7 99 -7 10 -37 27 -67 39 -88 35 -80 82
13 82 45 0 52 3 55 21 2 15 -4 23 -20 28 -31 8 -76 6 -116 -5z"/>
<path d="M821 1188 c-4 -13 -11 -80 -14 -150 l-7 -128 25 0 c35 0 45 27 45
120 0 91 8 95 41 22 39 -90 41 -93 68 -90 27 3 44 28 76 111 8 21 19 36 25 32
5 -3 10 -43 10 -89 0 -85 8 -106 42 -106 21 0 22 12 11 188 l-6 113 -36 -3
c-39 -3 -50 -19 -95 -131 -10 -26 -22 -47 -27 -47 -4 0 -24 41 -45 90 -36 88
-38 90 -71 90 -26 0 -35 -5 -42 -22z"/>
<path d="M1260 1089 l0 -121 34 -34 c29 -29 41 -34 83 -34 39 0 56 6 83 29
l35 29 4 126 3 126 -26 0 c-37 0 -46 -26 -46 -134 0 -117 -21 -148 -81 -116
-17 9 -19 22 -19 105 0 113 -10 145 -45 145 l-25 0 0 -121z"/>
<path d="M1616 1195 c-9 -24 -7 -248 2 -262 13 -20 48 -28 111 -25 51 3 61 7
61 22 0 20 -19 30 -58 30 -53 0 -57 10 -58 132 -1 113 -1 113 -26 116 -16 2
-28 -3 -32 -13z"/>
<path d="M1822 1188 c2 -18 11 -24 38 -28 l35 -5 3 -123 3 -123 27 3 27 3 5
120 5 120 43 3 c42 3 47 8 36 36 -5 13 -25 16 -116 16 -108 0 -109 0 -106 -22z"/>
<path d="M2116 1194 c-11 -28 -7 -282 4 -289 6 -4 22 1 35 9 25 16 25 19 25
156 l0 140 -29 0 c-17 0 -31 -6 -35 -16z"/>
<path d="M2610 1200 c-12 -7 -15 -35 -15 -147 l0 -138 25 0 c22 0 26 5 30 45
l5 45 50 5 c65 7 90 22 104 62 15 43 4 94 -26 118 -20 15 -41 20 -92 20 -36 0
-73 -5 -81 -10z m128 -52 c7 -7 12 -24 12 -38 0 -14 -5 -31 -12 -38 -16 -16
-78 -16 -79 1 -1 6 -3 23 -4 37 -1 14 0 31 2 37 6 16 65 17 81 1z"/>
<path d="M2923 1198 c-4 -7 -9 -62 -11 -123 -4 -146 2 -158 88 -167 73 -7 100
-3 100 17 0 19 -9 23 -59 29 -48 6 -71 20 -71 45 0 28 21 41 66 41 76 0 70 38
-7 46 -52 5 -63 15 -55 48 6 23 12 26 47 26 47 0 79 14 79 35 0 20 -164 22
-177 3z"/>
<path d="M3497 1203 c-4 -3 -7 -71 -7 -150 0 -150 1 -153 44 -137 14 5 16 28
16 150 l0 144 -23 0 c-13 0 -27 -3 -30 -7z"/>
<path d="M3736 1194 c-9 -8 -19 -27 -22 -42 -5 -24 -24 -85 -59 -197 -12 -37
-12 -40 7 -43 22 -4 58 24 58 45 0 9 16 13 54 13 50 0 56 -2 68 -27 9 -19 22
-29 42 -31 32 -4 32 -5 1 98 -9 30 -23 80 -32 110 -8 30 -19 63 -24 72 -12 23
-72 24 -93 2z m64 -92 c16 -60 13 -79 -14 -84 -42 -8 -48 3 -36 58 7 27 14 55
16 62 6 21 22 4 34 -36z"/>
<path d="M4007 1203 c-4 -3 -7 -66 -7 -138 0 -105 3 -135 15 -145 14 -12 152
-16 164 -5 13 14 -19 40 -55 45 -64 9 -64 10 -64 136 0 113 0 114 -23 114 -13
0 -27 -3 -30 -7z"/>
<path d="M4267 1203 c-4 -3 -7 -71 -7 -150 l0 -144 28 3 27 3 3 148 3 147 -24
0 c-13 0 -27 -3 -30 -7z"/>
<path d="M4422 1188 c2 -18 11 -24 38 -28 l35 -5 3 -122 c3 -123 3 -123 27
-123 36 0 45 28 45 144 l0 106 41 0 c33 0 40 3 35 16 -3 9 -6 20 -6 25 0 5
-50 9 -111 9 -109 0 -110 0 -107 -22z"/>
<path d="M4720 1205 c0 -3 21 -47 47 -98 34 -66 49 -108 53 -149 5 -57 5 -57
30 -45 20 10 26 22 30 63 3 31 21 82 48 135 23 46 42 88 42 92 0 5 -12 7 -26
5 -21 -2 -33 -15 -57 -60 -17 -32 -34 -58 -39 -58 -5 0 -20 23 -33 51 -13 29
-30 56 -37 60 -14 10 -58 12 -58 4z"/>
<path d="M5236 1194 c-10 -26 -7 -282 4 -289 5 -3 19 -1 30 5 16 8 20 21 20
58 0 66 8 74 66 70 l49 -3 3 -63 c3 -62 3 -63 30 -60 34 4 38 23 34 180 l-3
119 -27 -3 c-25 -3 -27 -6 -30 -61 l-3 -58 -57 3 -57 3 -3 58 c-3 52 -5 57
-26 57 -13 0 -27 -7 -30 -16z"/>
<path d="M6260 1185 c-5 -14 -10 -82 -10 -150 0 -96 3 -124 14 -128 24 -9 45
16 48 58 3 34 7 40 28 43 110 12 130 28 130 105 0 76 -19 91 -121 96 -77 3
-79 3 -89 -24z m138 -37 c17 -17 15 -54 -4 -72 -8 -9 -31 -16 -50 -16 -33 0
-34 1 -34 43 0 24 3 47 7 50 11 12 68 8 81 -5z"/>
<path d="M6581 1196 c-8 -9 -11 -59 -9 -152 3 -133 4 -139 23 -136 39 6 45 29
45 169 l0 133 -24 0 c-13 0 -29 -6 -35 -14z"/>
<path d="M6732 1188 c2 -19 10 -24 41 -26 l37 -3 0 -117 c0 -131 6 -150 39
-133 26 14 30 33 34 151 l2 95 38 3 c33 3 38 6 35 25 -3 21 -8 22 -116 25
-113 3 -113 3 -110 -20z"/>
<path d="M7071 1196 c-7 -8 -25 -59 -41 -113 -15 -54 -33 -111 -39 -126 -18
-46 -15 -56 17 -48 15 4 33 19 40 35 13 25 17 27 70 24 49 -3 57 -6 60 -24 4
-25 43 -46 62 -34 10 6 11 15 3 37 -6 15 -21 62 -33 103 -47 161 -47 160 -90
160 -20 0 -43 -6 -49 -14z m73 -132 c7 -40 6 -42 -21 -47 -36 -7 -56 9 -43 33
6 10 10 25 10 34 0 8 5 27 11 43 l11 28 13 -25 c7 -14 16 -44 19 -66z"/>
<path d="M7334 1176 c-11 -64 -1 -234 17 -251 18 -19 134 -26 156 -10 14 10
13 13 -2 28 -9 9 -29 17 -45 17 -59 0 -60 2 -60 131 l0 119 -30 0 c-25 0 -30
-4 -36 -34z"/>
<path d="M4913 398 c-13 -6 -23 -20 -23 -32 0 -12 -7 -32 -16 -45 -12 -17 -14
-25 -5 -31 8 -4 13 -39 14 -91 2 -67 5 -84 17 -84 12 0 16 18 18 88 3 79 5 87
22 87 26 0 26 20 -1 27 -27 7 -22 44 8 59 17 8 20 13 11 22 -14 14 -16 14 -45
0z"/>
<path d="M375 391 c-7 -13 5 -91 15 -91 11 0 23 76 15 90 -8 13 -22 13 -30 1z"/>
<path d="M440 351 c0 -28 5 -51 10 -51 6 0 11 8 11 18 4 60 3 76 -8 79 -9 3
-13 -10 -13 -46z"/>
<path d="M517 393 c-4 -3 -7 -66 -7 -140 0 -110 3 -135 15 -139 8 -4 22 -1 29
5 10 8 16 9 21 1 3 -5 24 -10 46 -10 61 0 89 33 89 105 0 46 -4 60 -25 80 -28
29 -85 34 -108 10 -21 -20 -27 -9 -27 47 0 45 -13 62 -33 41z m134 -112 c47
-38 21 -151 -34 -151 -60 0 -91 99 -45 147 26 28 48 29 79 4z"/>
<path d="M1107 394 c-4 -4 -7 -64 -7 -134 0 -130 6 -150 42 -150 20 0 23 11 8
26 -5 5 -11 65 -12 133 -3 116 -10 145 -31 125z"/>
<path d="M1367 394 c-4 -4 -7 -27 -7 -51 0 -40 -11 -55 -25 -33 -3 6 -23 10
-44 10 -56 0 -96 -45 -96 -110 0 -66 31 -100 90 -100 22 0 47 6 53 12 10 10
15 10 21 -1 5 -8 16 -11 25 -8 14 6 16 25 14 143 -3 128 -10 159 -31 138z
m-43 -105 c61 -28 37 -159 -29 -159 -59 0 -86 100 -40 145 27 28 34 30 69 14z"/>
<path d="M3669 388 c-1 -7 -2 -17 -4 -23 -1 -5 -3 -23 -3 -38 -2 -24 -4 -26
-21 -17 -64 34 -141 -15 -141 -90 0 -92 57 -134 135 -98 22 10 28 9 35 -2 7
-11 12 -12 20 -4 16 16 9 276 -7 282 -7 2 -14 -2 -14 -10z m-35 -101 c9 -7 21
-29 25 -48 23 -103 -90 -153 -118 -53 -21 75 39 140 93 101z"/>
<path d="M3849 358 c-7 -213 -4 -248 16 -248 8 0 14 24 17 75 5 79 24 115 59
115 32 0 49 -39 49 -112 0 -60 11 -90 27 -74 3 3 5 42 4 88 -2 99 -16 122 -71
115 -19 -2 -43 -7 -52 -11 -14 -7 -17 -1 -20 40 -4 62 -27 72 -29 12z"/>
<path d="M5600 255 c0 -122 2 -145 15 -145 11 0 15 13 15 54 0 84 26 136 69
136 29 0 41 -33 41 -111 0 -72 2 -79 20 -79 18 0 20 7 20 83 0 70 -3 87 -20
105 -25 26 -81 30 -100 7 -18 -22 -30 -2 -30 53 0 31 -4 42 -15 42 -13 0 -15
-23 -15 -145z"/>
<path d="M7640 350 c0 -37 4 -50 13 -47 7 2 12 21 12 47 0 26 -5 45 -12 48 -9
2 -13 -11 -13 -48z"/>
<path d="M7700 350 c0 -27 4 -50 9 -50 11 0 25 75 16 90 -14 23 -25 7 -25 -40z"/>
<path d="M1005 380 c-8 -14 3 -30 21 -30 8 0 14 9 14 20 0 21 -24 28 -35 10z"/>
<path d="M1467 384 c-14 -14 -7 -35 11 -32 9 2 17 10 17 17 0 16 -18 25 -28
15z"/>
<path d="M6750 370 c0 -19 20 -27 33 -13 8 7 -11 33 -24 33 -5 0 -9 -9 -9 -20z"/>
<path d="M2140 341 c0 -10 -7 -21 -15 -25 -8 -3 -15 -10 -15 -16 0 -5 7 -10
15 -10 12 0 15 -15 15 -78 0 -86 8 -102 52 -102 32 0 37 16 8 25 -18 6 -20 15
-20 81 0 67 2 74 20 74 11 0 20 4 20 9 0 5 -9 11 -20 14 -12 3 -20 14 -20 26
0 14 -6 21 -20 21 -13 0 -20 -7 -20 -19z"/>
<path d="M2850 346 c0 -8 -7 -22 -16 -31 -15 -15 -15 -17 -1 -28 12 -9 17 -33
19 -92 l3 -80 33 -3 c36 -4 42 7 12 26 -17 10 -20 23 -20 78 0 57 3 67 20 71
23 6 27 23 5 23 -8 0 -17 11 -21 25 -7 26 -34 35 -34 11z"/>
<path d="M5470 342 c0 -10 -6 -24 -12 -31 -10 -11 -10 -14 0 -18 8 -3 12 -28
12 -74 0 -86 11 -109 50 -109 34 0 40 15 10 23 -18 5 -20 14 -20 80 0 69 2 75
23 81 l22 7 -22 11 c-13 6 -23 19 -23 30 0 11 -7 18 -20 18 -13 0 -20 -7 -20
-18z"/>
<path d="M6620 340 c0 -11 -7 -23 -15 -26 -8 -4 -15 -10 -15 -15 0 -5 7 -9 15
-9 12 0 15 -15 15 -78 0 -86 8 -102 52 -102 32 0 38 15 8 23 -18 5 -20 14 -20
81 0 69 2 76 20 76 11 0 20 4 20 9 0 5 -9 13 -20 16 -11 3 -20 15 -20 26 0 12
-7 19 -20 19 -13 0 -20 -7 -20 -20z"/>
<path d="M7320 341 c0 -10 -8 -22 -17 -26 -17 -6 -17 -7 0 -19 13 -11 17 -28
17 -88 0 -79 9 -98 47 -98 26 0 29 8 9 24 -14 10 -19 50 -17 124 1 21 6 32 16
32 8 0 15 5 15 10 0 6 -5 10 -10 10 -6 0 -15 11 -20 25 -11 29 -40 34 -40 6z"/>
<path d="M760 238 c0 -103 13 -128 69 -128 20 0 42 5 49 12 9 9 15 9 24 0 31
-31 38 -14 38 94 0 95 -2 105 -17 102 -15 -3 -19 -16 -21 -78 -3 -77 -18 -110
-51 -110 -37 1 -46 18 -51 102 -4 69 -8 83 -22 86 -16 3 -18 -6 -18 -80z"/>
<path d="M1007 313 c-4 -3 -7 -51 -7 -105 0 -91 1 -98 20 -98 19 0 20 7 20
105 0 81 -3 105 -13 105 -8 0 -17 -3 -20 -7z"/>
<path d="M1467 314 c-4 -4 -7 -52 -7 -106 0 -89 2 -99 18 -96 15 3 17 16 17
102 0 92 -8 120 -28 100z"/>
<path d="M1567 313 c-4 -3 -7 -51 -7 -105 0 -89 2 -99 18 -96 14 3 18 17 22
81 4 63 9 82 24 93 11 8 25 14 32 14 17 0 44 -28 46 -48 0 -9 2 -21 3 -27 2
-5 3 -34 4 -62 1 -41 5 -53 17 -53 14 0 15 13 12 91 -2 76 -6 93 -22 105 -24
17 -69 18 -97 2 -17 -10 -23 -10 -26 0 -5 13 -16 16 -26 5z"/>
<path d="M1822 298 c-47 -51 -49 -116 -6 -163 28 -30 87 -34 116 -8 17 15 18
15 18 -9 0 -13 -6 -33 -14 -43 -18 -25 -81 -26 -99 -1 -7 10 -22 16 -33 14
-17 -3 -17 -6 9 -32 26 -25 34 -28 79 -24 83 8 92 25 96 168 3 97 1 120 -10
120 -8 0 -19 -5 -26 -12 -9 -9 -15 -9 -24 0 -21 21 -82 15 -106 -10z m91 -9
c31 -17 37 -28 37 -76 0 -70 -52 -104 -100 -65 -34 27 -34 106 -1 133 27 22
35 23 64 8z"/>
<path d="M2270 215 c0 -86 3 -105 15 -105 17 0 23 25 23 100 0 41 5 58 17 65
38 23 50 34 42 41 -4 4 -19 1 -34 -7 -20 -11 -27 -11 -30 -1 -3 6 -11 12 -19
12 -11 0 -14 -21 -14 -105z"/>
<path d="M2404 294 c-11 -43 2 -144 22 -165 20 -22 83 -26 103 -6 11 10 14 10
18 0 3 -7 11 -13 19 -13 11 0 14 21 14 106 0 80 -3 105 -12 102 -8 -3 -15 -32
-19 -74 -3 -38 -10 -77 -14 -87 -11 -26 -52 -33 -75 -12 -17 15 -20 31 -20 97
0 62 -3 78 -15 78 -8 0 -18 -12 -21 -26z"/>
<path d="M2657 302 c-34 -37 -13 -83 45 -97 14 -4 34 -15 44 -26 14 -15 14
-21 4 -34 -18 -21 -50 -19 -77 7 -17 16 -26 19 -34 11 -8 -8 -5 -17 10 -32 28
-28 100 -29 124 -3 35 39 18 72 -55 105 -40 18 -52 52 -23 63 17 7 29 2 63
-22 19 -15 22 -15 22 -1 0 45 -90 66 -123 29z"/>
<path d="M3070 295 c-17 -18 -21 -28 -13 -36 8 -8 18 -3 36 16 26 29 53 30 70
4 17 -27 1 -49 -35 -49 -48 0 -78 -24 -78 -64 0 -17 5 -37 12 -44 15 -15 80
-16 95 -1 8 8 13 8 17 0 4 -6 13 -11 19 -11 9 0 12 26 12 91 0 78 -3 93 -20
105 -31 23 -88 18 -115 -11z m102 -110 c-8 -45 -54 -69 -80 -43 -31 31 -3 70
48 66 29 -2 34 -7 32 -23z"/>
<path d="M3277 313 c-4 -3 -7 -51 -7 -105 0 -91 1 -98 20 -98 18 0 20 7 20 75
0 63 3 77 22 95 26 24 38 25 63 6 16 -12 20 -29 23 -95 3 -61 8 -81 18 -81 11
0 14 20 14 89 0 82 -2 91 -22 105 -27 19 -79 21 -96 4 -9 -9 -15 -9 -24 0 -14
14 -22 15 -31 5z"/>
<path d="M4117 309 c-9 -5 -24 -23 -32 -39 -39 -76 7 -159 88 -160 49 0 83 23
97 66 24 72 -23 144 -94 144 -23 0 -49 -5 -59 -11z m98 -34 c46 -45 19 -145
-40 -145 -32 0 -65 44 -65 87 0 37 36 83 65 83 9 0 27 -11 40 -25z"/>
<path d="M4329 238 c0 -46 -1 -101 -3 -123 -2 -48 10 -89 25 -80 6 4 9 25 7
48 -2 39 12 60 27 38 3 -6 24 -11 46 -11 49 0 85 32 94 84 17 88 -62 155 -137
115 -14 -8 -23 -8 -31 0 -22 22 -27 9 -28 -71z m140 36 c12 -15 21 -41 21 -59
0 -41 -34 -85 -65 -85 -31 0 -65 44 -65 85 0 41 34 85 65 85 14 0 32 -11 44
-26z"/>
<path d="M4589 291 c-33 -34 -39 -92 -14 -140 16 -33 33 -41 79 -41 32 0 86
32 86 51 0 17 -35 9 -48 -11 -25 -40 -92 -12 -92 38 0 21 5 22 76 22 l76 0 -7
33 c-15 76 -101 102 -156 48z m93 -3 c9 -7 18 -22 20 -33 3 -18 -3 -20 -49
-23 -59 -3 -69 12 -33 48 23 23 40 25 62 8z"/>
<path d="M5019 289 c-23 -25 -29 -40 -29 -76 0 -92 98 -137 169 -77 27 23 31
32 31 79 0 47 -4 56 -31 79 -45 38 -102 36 -140 -5z m111 -7 c17 -14 22 -28
22 -66 0 -54 -22 -86 -59 -86 -59 0 -87 98 -41 147 26 28 48 29 78 5z"/>
<path d="M5247 313 c-11 -10 -8 -176 3 -193 17 -26 30 8 30 77 0 63 15 93 46
93 8 0 14 7 14 15 0 20 -19 19 -42 -1 -16 -16 -18 -16 -24 0 -6 17 -16 20 -27
9z"/>
<path d="M5867 302 c-53 -32 -55 -141 -4 -177 36 -25 94 -19 125 12 23 23 24
28 10 31 -9 2 -26 -6 -37 -17 -32 -32 -68 -27 -88 14 -19 36 -6 45 68 45 l69
0 0 29 c0 65 -81 101 -143 63z m85 -19 c10 -9 18 -24 18 -35 0 -15 -8 -18 -49
-18 -28 0 -52 4 -55 9 -8 13 33 61 51 61 9 0 25 -7 35 -17z"/>
<path d="M6147 313 c-4 -3 -7 -66 -7 -140 0 -126 1 -133 20 -133 17 0 20 7 20
39 0 40 13 61 25 41 9 -15 78 -12 102 5 47 33 50 140 6 175 -29 22 -73 26
-106 9 -16 -9 -22 -9 -25 0 -4 12 -25 15 -35 4z m134 -32 c49 -40 22 -151 -37
-151 -58 0 -85 100 -39 145 29 30 45 31 76 6z"/>
<path d="M6412 297 c-12 -13 -22 -26 -22 -30 0 -15 31 -6 51 14 23 23 47 22
62 -2 15 -24 1 -49 -27 -49 -69 0 -111 -50 -81 -96 12 -18 25 -24 53 -24 21 0
43 5 49 11 8 8 13 8 17 0 4 -6 14 -11 23 -11 25 0 14 177 -12 196 -30 22 -88
18 -113 -9z m98 -109 c0 -44 -50 -74 -78 -46 -30 30 -3 67 51 68 21 0 27 -5
27 -22z"/>
<path d="M6750 216 c0 -89 3 -106 15 -106 13 0 15 16 13 102 -2 70 -7 103 -15
106 -10 3 -13 -22 -13 -102z"/>
<path d="M6877 309 c-50 -29 -62 -120 -21 -168 21 -26 33 -31 68 -31 41 0 86
26 86 50 0 17 -26 11 -45 -10 -10 -11 -28 -20 -40 -20 -27 0 -58 33 -53 57 3
15 15 18 76 21 68 3 72 4 72 27 0 13 -12 37 -26 54 -20 24 -34 31 -62 31 -21
0 -45 -5 -55 -11z m81 -25 c12 -8 22 -24 22 -35 0 -16 -7 -19 -55 -19 -61 0
-71 14 -35 50 24 24 38 25 68 4z"/>
<path d="M7077 313 c-4 -3 -7 -51 -7 -105 0 -80 3 -98 15 -98 11 0 15 12 15
48 0 103 35 157 86 133 23 -10 24 -16 24 -96 0 -78 2 -85 20 -85 19 0 20 7 20
89 0 82 -2 91 -22 105 -29 21 -77 20 -100 0 -16 -16 -18 -16 -24 0 -6 17 -16
20 -27 9z"/>
<path d="M7455 304 c-20 -20 -16 -74 5 -84 8 -4 32 -15 53 -24 45 -19 51 -52
11 -62 -18 -5 -32 0 -50 17 -17 16 -27 20 -35 12 -20 -20 25 -53 71 -53 41 0
80 26 80 53 0 25 -30 54 -68 65 -43 13 -59 36 -41 58 16 19 32 17 59 -6 31
-27 52 -10 25 20 -23 25 -86 27 -110 4z"/>
</g>
</svg>
