<svg xmlns="http://www.w3.org/2000/svg" width="785" height="532" viewBox="0 0 785 532" version="1.1"><path d="M 87.089 17.643 C 83.698 19.333, 80.924 21.668, 79.183 24.299 C 76.605 28.194, 76.486 28.972, 76.145 44.176 C 75.752 61.694, 75.866 61.965, 82.053 58.309 C 86.177 55.873, 87.421 51.868, 87.463 40.885 C 87.505 29.959, 88.931 27, 94.155 27 C 99.227 27, 101 29.979, 101 38.500 L 101 46 106.500 46 L 112 46 112 37.968 C 112 23.846, 107.881 18.460, 94.906 15.610 C 93.199 15.235, 90.527 15.930, 87.089 17.643 M 53.500 50.412 C 49.636 52.129, 46.493 55.577, 44.548 60.232 C 41.761 66.902, 42.884 73.129, 47.814 78.339 C 52.943 83.761, 55.270 84.390, 71.750 84.818 L 87 85.214 87 82.829 C 87 76.109, 80.865 73, 67.605 73 C 58.576 73, 58.051 72.880, 56.073 70.365 C 53.480 67.069, 53.480 65.931, 56.073 62.635 C 57.979 60.211, 58.740 60, 65.573 60 L 73 60 73 54.500 L 73 49 64.750 49.039 C 60.129 49.061, 55.180 49.665, 53.500 50.412 M 101 50.050 C 101 50.627, 101.683 52.419, 102.517 54.033 C 104.957 58.751, 108.607 60, 119.950 60 C 128.667 60, 130.265 60.265, 132 62 C 134.466 64.466, 134.568 68.100, 132.250 70.869 C 130.808 72.591, 129.181 73.006, 123 73.229 L 115.500 73.500 115.200 79.250 L 114.900 85 121.200 84.976 C 132.827 84.932, 138.191 82.684, 142.837 75.908 C 146.003 71.290, 145.646 61.120, 142.146 56.205 C 137.764 50.052, 134.027 49, 116.540 49 C 106.356 49, 101 49.362, 101 50.050 M 170 53 C 170 56.877, 170.104 57, 173.378 57 C 177.271 57, 177.561 57.294, 182.241 66 C 184.163 69.575, 187.370 75.276, 189.368 78.668 C 193.534 85.744, 193.780 87, 191 87 C 189.381 87, 189 87.667, 189 90.500 L 189 94 202.500 94 L 216 94 216 90.500 C 216 87.667, 215.619 87, 214 87 C 211.217 87, 211.466 85.741, 215.644 78.668 C 217.647 75.276, 220.628 70.025, 222.266 67 C 227.572 57.203, 227.760 57, 231.523 57 C 234.917 57, 235 56.904, 235 52.970 L 235 48.940 222.250 49.220 L 209.500 49.500 209.190 53.250 L 208.879 57 213.440 57 C 215.948 57, 218 57.221, 218 57.492 C 218 59.031, 203.640 83.047, 202.872 82.791 C 202.363 82.621, 198.815 76.861, 194.988 69.991 L 188.029 57.500 192.014 57.193 C 195.936 56.890, 196 56.822, 196 52.943 L 196 49 183 49 L 170 49 170 53 M 247 53 C 247 56.911, 247.079 57, 250.527 57 L 254.053 57 253.777 71.750 L 253.500 86.500 250.250 86.813 C 247.275 87.100, 247 87.417, 247 90.563 L 247 94 273 94 L 299 94 299 85 L 299 76 296.059 76 C 293.397 76, 293.038 76.404, 292.278 80.250 L 291.439 84.500 277.161 84.778 L 262.882 85.056 263.191 80.778 L 263.500 76.500 272.808 76.212 L 282.116 75.923 281.808 72.212 L 281.500 68.500 274 68.303 C 269.875 68.195, 265.712 68.082, 264.750 68.053 C 263.349 68.011, 263 67.097, 263 63.471 L 263 58.942 276.220 59.221 L 289.439 59.500 290.279 63.750 C 291.038 67.596, 291.397 68, 294.059 68 L 297 68 297 58.500 L 297 49 272 49 L 247 49 247 53 M 312.748 49.585 C 312.337 49.997, 312 51.833, 312 53.667 C 312 56.814, 312.196 57, 315.527 57 L 319.053 57 318.777 71.750 L 318.500 86.500 315.250 86.813 C 312.275 87.100, 312 87.417, 312 90.563 L 312 94 325 94 L 338 94 338 90.500 C 338 87.019, 337.976 87, 333.500 87 L 329 87 329 81 L 329 75 335.968 75 L 342.935 75 346.968 80.341 C 349.185 83.278, 351 85.978, 351 86.341 C 351 86.703, 349.650 87, 348 87 C 345.238 87, 345 87.278, 345 90.500 L 345 94 358 94 L 371 94 371 90.500 C 371 87.221, 370.795 86.999, 367.750 86.985 C 365.962 86.976, 364.050 86.639, 363.500 86.235 C 361.770 84.964, 355 76.207, 355 75.240 C 355 74.732, 356.822 73.771, 359.048 73.104 C 369.019 70.116, 369.823 56.115, 360.294 51.387 C 357.010 49.758, 353.610 49.460, 334.998 49.171 C 323.172 48.987, 313.160 49.174, 312.748 49.585 M 381 58.500 L 381 68 383.881 68 C 386.466 68, 386.880 67.532, 387.907 63.455 L 389.052 58.910 395.776 59.205 L 402.500 59.500 402.500 73 L 402.500 86.500 398.250 86.807 C 394.133 87.105, 394 87.222, 394 90.557 L 394 94 407 94 L 420 94 420 90.560 C 420 87.308, 419.796 87.104, 416.250 86.810 L 412.500 86.500 412.221 72.706 L 411.943 58.911 419.193 59.206 L 426.443 59.500 427.280 63.750 C 428.038 67.597, 428.397 68, 431.059 68 L 434 68 434 58.500 L 434 49 407.500 49 L 381 49 381 58.500 M 446 53 C 446 56.899, 446.088 57, 449.474 57 L 452.948 57 452.724 71.750 L 452.500 86.500 449.250 86.813 C 446.275 87.100, 446 87.417, 446 90.563 L 446 94 472 94 L 498 94 498 85 L 498 76 495.067 76 C 492.090 76, 491.908 76.253, 490.574 82.250 L 489.962 85 475.981 85 L 462 85 462 80.500 L 462 76 471.560 76 L 481.121 76 480.810 72.250 C 480.464 68.068, 481.039 68.283, 469.750 68.115 L 462 68 462 63.500 L 462 59 474.986 59 L 487.971 59 489.104 63.500 C 490.119 67.530, 490.538 68, 493.119 68 L 496 68 496 58.500 L 496 49 471 49 L 446 49 446 53 M 511 52.970 C 511 56.846, 511.124 57.001, 514.250 57.020 C 516.853 57.036, 518.971 58.386, 524.890 63.797 L 532.281 70.554 522.890 78.757 C 517.726 83.268, 512.712 86.969, 511.750 86.980 C 510.421 86.995, 510 87.841, 510 90.500 L 510 94 523 94 L 536 94 536 90.500 L 536 87 531 87 C 528.250 87, 526 86.774, 526 86.497 C 526 85.986, 531.016 81.333, 536.577 76.685 L 539.654 74.114 546.527 80.307 L 553.400 86.500 548.041 87 C 542.787 87.490, 542.680 87.564, 542.591 90.750 L 542.500 94 555.750 94 L 569 94 569 90.500 C 569 87.841, 568.580 86.995, 567.250 86.981 C 566.288 86.971, 561.268 83.288, 556.096 78.797 L 546.693 70.631 554.096 63.850 C 560.010 58.433, 562.154 57.062, 564.750 57.034 C 567.869 57.001, 568 56.839, 568 53 L 568 49 555 49 L 542 49 542 53 C 542 56.905, 542.083 57, 545.500 57 C 547.425 57, 549 57.355, 549 57.788 C 549 58.652, 540.499 66, 539.500 66 C 538.501 66, 530 58.652, 530 57.788 C 530 57.355, 531.602 57, 533.560 57 C 537.063 57, 537.116 56.939, 536.810 53.250 L 536.500 49.500 523.750 49.220 L 511 48.940 511 52.970 M 329 63.500 L 329 68 341.066 68 C 354.055 68, 357 67.199, 357 63.665 C 357 59.507, 355.348 59, 341.800 59 L 329 59 329 63.500 M 106.117 75.631 C 102.445 78.202, 101 83.037, 101 92.745 C 101 103.253, 99.673 106, 94.598 106 C 89.636 106, 87.826 103.304, 87.234 95.026 L 86.731 88 81.366 88 L 76 88 76.022 95.250 C 76.056 106.488, 79.818 112.937, 88.440 116.539 C 95.459 119.472, 104.286 116.585, 109.408 109.680 C 111.295 107.137, 111.531 105.251, 111.817 90.430 C 112.115 75.013, 112.021 74, 110.290 74 C 109.275 74, 107.397 74.734, 106.117 75.631" stroke="none" fill="#4d5995" fill-rule="evenodd"/><path d="M -0 266.001 L -0 532.003 392.750 531.751 L 785.500 531.500 785.752 265.750 L 786.004 -0 393.002 -0 L 0 0 -0 266.001 M 0.493 266.500 C 0.493 412.800, 0.608 472.501, 0.750 399.169 C 0.892 325.838, 0.892 206.138, 0.750 133.169 C 0.608 60.201, 0.493 120.200, 0.493 266.500 M 87.089 17.643 C 83.698 19.333, 80.924 21.668, 79.183 24.299 C 76.605 28.194, 76.486 28.972, 76.145 44.176 C 75.752 61.694, 75.866 61.965, 82.053 58.309 C 86.177 55.873, 87.421 51.868, 87.463 40.885 C 87.505 29.959, 88.931 27, 94.155 27 C 99.227 27, 101 29.979, 101 38.500 L 101 46 106.500 46 L 112 46 112 37.968 C 112 23.846, 107.881 18.460, 94.906 15.610 C 93.199 15.235, 90.527 15.930, 87.089 17.643 M 53.500 50.412 C 49.636 52.129, 46.493 55.577, 44.548 60.232 C 41.761 66.902, 42.884 73.129, 47.814 78.339 C 52.943 83.761, 55.270 84.390, 71.750 84.818 L 87 85.214 87 82.829 C 87 76.109, 80.865 73, 67.605 73 C 58.576 73, 58.051 72.880, 56.073 70.365 C 53.480 67.069, 53.480 65.931, 56.073 62.635 C 57.979 60.211, 58.740 60, 65.573 60 L 73 60 73 54.500 L 73 49 64.750 49.039 C 60.129 49.061, 55.180 49.665, 53.500 50.412 M 101 50.050 C 101 50.627, 101.683 52.419, 102.517 54.033 C 104.957 58.751, 108.607 60, 119.950 60 C 128.667 60, 130.265 60.265, 132 62 C 134.466 64.466, 134.568 68.100, 132.250 70.869 C 130.808 72.591, 129.181 73.006, 123 73.229 L 115.500 73.500 115.200 79.250 L 114.900 85 121.200 84.976 C 132.827 84.932, 138.191 82.684, 142.837 75.908 C 146.003 71.290, 145.646 61.120, 142.146 56.205 C 137.764 50.052, 134.027 49, 116.540 49 C 106.356 49, 101 49.362, 101 50.050 M 170 53 C 170 56.877, 170.104 57, 173.378 57 C 177.271 57, 177.561 57.294, 182.241 66 C 184.163 69.575, 187.370 75.276, 189.368 78.668 C 193.534 85.744, 193.780 87, 191 87 C 189.381 87, 189 87.667, 189 90.500 L 189 94 202.500 94 L 216 94 216 90.500 C 216 87.667, 215.619 87, 214 87 C 211.217 87, 211.466 85.741, 215.644 78.668 C 217.647 75.276, 220.628 70.025, 222.266 67 C 227.572 57.203, 227.760 57, 231.523 57 C 234.917 57, 235 56.904, 235 52.970 L 235 48.940 222.250 49.220 L 209.500 49.500 209.190 53.250 L 208.879 57 213.440 57 C 215.948 57, 218 57.221, 218 57.492 C 218 59.031, 203.640 83.047, 202.872 82.791 C 202.363 82.621, 198.815 76.861, 194.988 69.991 L 188.029 57.500 192.014 57.193 C 195.936 56.890, 196 56.822, 196 52.943 L 196 49 183 49 L 170 49 170 53 M 247 53 C 247 56.911, 247.079 57, 250.527 57 L 254.053 57 253.777 71.750 L 253.500 86.500 250.250 86.813 C 247.275 87.100, 247 87.417, 247 90.563 L 247 94 273 94 L 299 94 299 85 L 299 76 296.059 76 C 293.397 76, 293.038 76.404, 292.278 80.250 L 291.439 84.500 277.161 84.778 L 262.882 85.056 263.191 80.778 L 263.500 76.500 272.808 76.212 L 282.116 75.923 281.808 72.212 L 281.500 68.500 274 68.303 C 269.875 68.195, 265.712 68.082, 264.750 68.053 C 263.349 68.011, 263 67.097, 263 63.471 L 263 58.942 276.220 59.221 L 289.439 59.500 290.279 63.750 C 291.038 67.596, 291.397 68, 294.059 68 L 297 68 297 58.500 L 297 49 272 49 L 247 49 247 53 M 312.748 49.585 C 312.337 49.997, 312 51.833, 312 53.667 C 312 56.814, 312.196 57, 315.527 57 L 319.053 57 318.777 71.750 L 318.500 86.500 315.250 86.813 C 312.275 87.100, 312 87.417, 312 90.563 L 312 94 325 94 L 338 94 338 90.500 C 338 87.019, 337.976 87, 333.500 87 L 329 87 329 81 L 329 75 335.968 75 L 342.935 75 346.968 80.341 C 349.185 83.278, 351 85.978, 351 86.341 C 351 86.703, 349.650 87, 348 87 C 345.238 87, 345 87.278, 345 90.500 L 345 94 358 94 L 371 94 371 90.500 C 371 87.221, 370.795 86.999, 367.750 86.985 C 365.962 86.976, 364.050 86.639, 363.500 86.235 C 361.770 84.964, 355 76.207, 355 75.240 C 355 74.732, 356.822 73.771, 359.048 73.104 C 369.019 70.116, 369.823 56.115, 360.294 51.387 C 357.010 49.758, 353.610 49.460, 334.998 49.171 C 323.172 48.987, 313.160 49.174, 312.748 49.585 M 381 58.500 L 381 68 383.881 68 C 386.466 68, 386.880 67.532, 387.907 63.455 L 389.052 58.910 395.776 59.205 L 402.500 59.500 402.500 73 L 402.500 86.500 398.250 86.807 C 394.133 87.105, 394 87.222, 394 90.557 L 394 94 407 94 L 420 94 420 90.560 C 420 87.308, 419.796 87.104, 416.250 86.810 L 412.500 86.500 412.221 72.706 L 411.943 58.911 419.193 59.206 L 426.443 59.500 427.280 63.750 C 428.038 67.597, 428.397 68, 431.059 68 L 434 68 434 58.500 L 434 49 407.500 49 L 381 49 381 58.500 M 446 53 C 446 56.899, 446.088 57, 449.474 57 L 452.948 57 452.724 71.750 L 452.500 86.500 449.250 86.813 C 446.275 87.100, 446 87.417, 446 90.563 L 446 94 472 94 L 498 94 498 85 L 498 76 495.067 76 C 492.090 76, 491.908 76.253, 490.574 82.250 L 489.962 85 475.981 85 L 462 85 462 80.500 L 462 76 471.560 76 L 481.121 76 480.810 72.250 C 480.464 68.068, 481.039 68.283, 469.750 68.115 L 462 68 462 63.500 L 462 59 474.986 59 L 487.971 59 489.104 63.500 C 490.119 67.530, 490.538 68, 493.119 68 L 496 68 496 58.500 L 496 49 471 49 L 446 49 446 53 M 511 52.970 C 511 56.846, 511.124 57.001, 514.250 57.020 C 516.853 57.036, 518.971 58.386, 524.890 63.797 L 532.281 70.554 522.890 78.757 C 517.726 83.268, 512.712 86.969, 511.750 86.980 C 510.421 86.995, 510 87.841, 510 90.500 L 510 94 523 94 L 536 94 536 90.500 L 536 87 531 87 C 528.250 87, 526 86.774, 526 86.497 C 526 85.986, 531.016 81.333, 536.577 76.685 L 539.654 74.114 546.527 80.307 L 553.400 86.500 548.041 87 C 542.787 87.490, 542.680 87.564, 542.591 90.750 L 542.500 94 555.750 94 L 569 94 569 90.500 C 569 87.841, 568.580 86.995, 567.250 86.981 C 566.288 86.971, 561.268 83.288, 556.096 78.797 L 546.693 70.631 554.096 63.850 C 560.010 58.433, 562.154 57.062, 564.750 57.034 C 567.869 57.001, 568 56.839, 568 53 L 568 49 555 49 L 542 49 542 53 C 542 56.905, 542.083 57, 545.500 57 C 547.425 57, 549 57.355, 549 57.788 C 549 58.652, 540.499 66, 539.500 66 C 538.501 66, 530 58.652, 530 57.788 C 530 57.355, 531.602 57, 533.560 57 C 537.063 57, 537.116 56.939, 536.810 53.250 L 536.500 49.500 523.750 49.220 L 511 48.940 511 52.970 M 329 63.500 L 329 68 341.066 68 C 354.055 68, 357 67.199, 357 63.665 C 357 59.507, 355.348 59, 341.800 59 L 329 59 329 63.500 M 106.117 75.631 C 102.445 78.202, 101 83.037, 101 92.745 C 101 103.253, 99.673 106, 94.598 106 C 89.636 106, 87.826 103.304, 87.234 95.026 L 86.731 88 81.366 88 L 76 88 76.022 95.250 C 76.056 106.488, 79.818 112.937, 88.440 116.539 C 95.459 119.472, 104.286 116.585, 109.408 109.680 C 111.295 107.137, 111.531 105.251, 111.817 90.430 C 112.115 75.013, 112.021 74, 110.290 74 C 109.275 74, 107.397 74.734, 106.117 75.631" stroke="none" fill="#fbfbfb" fill-rule="evenodd"/></svg>