<svg xmlns="http://www.w3.org/2000/svg" width="930" height="532" viewBox="0 0 930 532" version="1.1"><path d="M 165.732 84.037 C 154.824 85.872, 144.915 93.366, 139.885 103.583 C 136.151 111.167, 135.336 118.764, 136.471 135.409 L 137.192 146 148.096 146 L 159 146 159 131.450 C 159 115.170, 159.801 112.312, 165.299 108.960 C 172.062 104.836, 181.707 107.661, 184.614 114.618 C 185.625 117.039, 186.269 123.239, 186.610 133.846 C 186.887 142.456, 187.618 151.525, 188.236 154 C 190.546 163.262, 197.941 170.410, 206 171.170 L 209.500 171.500 209.795 154 C 209.958 144.375, 209.626 130.481, 209.058 123.125 C 208.198 111.992, 207.579 108.838, 205.366 104.316 C 200.137 93.628, 190.390 86.283, 178.526 84.089 C 172.064 82.895, 172.512 82.897, 165.732 84.037 M 485.496 116.006 C 485.154 116.559, 485.345 118.472, 485.921 120.256 C 486.496 122.040, 488.151 127.550, 489.598 132.500 C 491.045 137.450, 493.120 144.329, 494.209 147.788 L 496.188 154.075 504.738 153.788 C 514.356 153.464, 513.958 153.776, 516.581 144.500 C 518.978 136.022, 520.647 130.412, 522.829 123.500 C 523.870 120.200, 524.504 116.918, 524.238 116.207 C 523.893 115.286, 521.850 114.999, 517.138 115.207 L 510.523 115.500 508.134 125.250 C 506.821 130.613, 505.384 135, 504.940 135 C 504.032 135, 503.793 134.284, 501.439 124.500 C 500.513 120.650, 499.305 116.938, 498.755 116.250 C 497.551 114.745, 486.402 114.540, 485.496 116.006 M 531.445 116.284 C 531.174 116.990, 531.075 125.652, 531.226 135.534 L 531.500 153.500 548.225 153.774 L 564.950 154.048 565.549 151.662 C 565.878 150.350, 566.002 147.752, 565.824 145.888 L 565.500 142.500 556 141.941 L 546.500 141.383 553.500 141.050 C 557.350 140.866, 561.526 140.693, 562.779 140.665 C 565.370 140.607, 566.327 138.162, 565.824 132.888 L 565.500 129.500 556.250 129.212 C 544.369 128.843, 544.072 127, 555.893 127 C 565.539 127, 566 126.726, 566 121 C 566 114.906, 566.278 115, 548.362 115 C 535.915 115, 531.818 115.311, 531.445 116.284 M 575 134.400 L 575 154 582 154 C 588.737 154, 589 153.909, 589 151.582 C 589 144.849, 592.749 144.059, 596.500 150 L 599.025 154 606.013 154 C 610.018 154, 613 153.572, 613 152.997 C 613 152.445, 611.696 149.900, 610.103 147.340 L 607.206 142.685 609.103 138.260 C 612.676 129.925, 610.830 122.894, 603.678 117.592 C 601.229 115.776, 599.148 115.454, 587.928 115.150 L 575 114.799 575 134.400 M 618.689 115.644 C 618.310 116.023, 618 118.703, 618 121.599 C 618 127.422, 618.647 127.985, 625 127.695 L 628.500 127.536 628.779 140.768 L 629.058 154 635.999 154 L 642.940 154 643.220 141.250 L 643.500 128.500 646.500 128.226 C 654.055 127.535, 654.126 127.467, 653.799 121.219 L 653.500 115.500 636.439 115.227 C 627.056 115.077, 619.069 115.265, 618.689 115.644 M 661.445 116.284 C 661.174 116.990, 661.075 125.652, 661.226 135.534 L 661.500 153.500 678.301 153.774 L 695.101 154.049 694.801 148.274 L 694.500 142.500 685 141.941 C 676.684 141.452, 676.248 141.343, 681.500 141.065 C 684.800 140.890, 688.400 140.647, 689.500 140.525 C 690.600 140.402, 692.288 140.234, 693.250 140.151 C 694.686 140.027, 695 139.014, 695 134.500 L 695 129 686 129 C 674.385 129, 674.178 127.171, 685.750 126.789 L 694.500 126.500 694.800 120.750 L 695.100 115 678.519 115 C 665.944 115, 661.818 115.310, 661.445 116.284 M 703 116.182 C 703 116.832, 705.475 121.083, 708.500 125.629 C 711.525 130.176, 714 134.187, 714 134.544 C 714 134.901, 711.525 138.990, 708.500 143.631 C 705.475 148.272, 703 152.503, 703 153.034 C 703 153.565, 706.147 154, 709.994 154 C 716.978 154, 716.991 153.995, 719.823 150.086 C 722.906 145.830, 723.467 145.883, 726.866 150.750 C 729.056 153.886, 729.380 154, 736.068 154 C 740.957 154, 742.995 153.632, 742.982 152.750 C 742.972 152.063, 740.497 147.727, 737.483 143.115 L 732.003 134.731 734.192 131.115 C 735.395 129.127, 737.870 125.256, 739.690 122.513 C 744.407 115.406, 744.209 115, 736.014 115 L 729.028 115 726.381 119 C 724.925 121.200, 723.457 122.983, 723.117 122.962 C 722.778 122.941, 721.267 121.141, 719.760 118.962 L 717.019 115 710.010 115 C 705.284 115, 703 115.385, 703 116.182 M 589.390 128.427 C 587.624 133.028, 590.470 135.852, 595.579 134.570 C 597.438 134.103, 598 133.294, 598 131.088 C 598 129.390, 597.353 127.966, 596.418 127.607 C 593.617 126.532, 589.953 126.960, 589.390 128.427 M 217.250 149.629 C 216.378 150.004, 216.004 152.942, 216.014 159.333 C 216.035 173.669, 214.713 172.559, 231.285 172.149 C 248.036 171.734, 250.660 172.601, 254.088 179.681 C 256.754 185.189, 256.080 189.701, 251.874 194.490 C 248.218 198.655, 247.584 198.779, 224.489 199.867 C 209.250 200.585, 205.845 201.039, 202.365 202.814 C 195.481 206.326, 189.532 215.213, 190.206 220.978 L 190.500 223.500 208 223.171 C 240.171 222.567, 251.003 221.604, 257.082 218.810 C 264.270 215.506, 268.570 211.733, 273.055 204.793 C 284.779 186.654, 277.850 162.458, 258.150 152.750 C 251.589 149.516, 251.473 149.499, 235.028 149.296 C 225.938 149.184, 217.938 149.334, 217.250 149.629 M 117.500 152.989 C 99.733 153.805, 97.299 154.266, 89.732 158.257 C 82.749 161.939, 77.660 167.362, 74.135 174.880 C 71.868 179.716, 71.500 181.825, 71.500 190 C 71.500 198.175, 71.868 200.284, 74.135 205.120 C 79.183 215.886, 87.367 222.598, 99.112 225.607 C 104.149 226.898, 108.012 227.069, 119.112 226.494 C 127.931 226.038, 133.012 225.372, 133.266 224.641 C 133.484 224.013, 133.461 218.870, 133.214 213.211 L 132.764 202.922 117.601 203.211 C 102.722 203.495, 102.379 203.453, 99.313 201 C 95.356 197.834, 94 194.974, 94 189.797 C 94 185.417, 97.249 180.008, 101.125 177.933 C 102.249 177.332, 111.920 176.426, 122.616 175.920 C 134.651 175.350, 143.291 174.486, 145.282 173.651 C 152.673 170.554, 158.440 163.207, 159.156 155.974 L 159.500 152.500 146 152.400 C 138.575 152.345, 125.750 152.610, 117.500 152.989 M 295.704 188.630 C 295.317 189.017, 295 197.808, 295 208.167 L 295 227 302 227 C 308.589 227, 309.001 226.868, 309.014 224.750 C 309.021 223.512, 309.317 221.418, 309.671 220.095 C 310.261 217.891, 310.459 218.058, 312.037 222.095 C 313.736 226.440, 313.824 226.500, 318.500 226.500 C 323.182 226.500, 323.263 226.444, 325.064 222 C 326.849 217.598, 326.889 217.569, 326.944 220.668 C 327.049 226.590, 327.579 227, 335.129 227 L 342.043 227 341.772 207.750 L 341.500 188.500 333.147 188.500 L 324.794 188.500 322.007 196.807 C 319.584 204.027, 318.105 207.355, 317.957 205.917 C 317.934 205.687, 316.677 201.675, 315.165 197 L 312.415 188.500 304.411 188.213 C 300.009 188.055, 296.091 188.242, 295.704 188.630 M 350.383 189.444 C 350.059 190.289, 349.953 196.497, 350.147 203.240 C 350.439 213.388, 350.854 216.102, 352.554 218.997 C 359.428 230.698, 378.572 230.698, 385.446 218.997 C 387.244 215.936, 387.500 213.817, 387.500 202 L 387.500 188.500 380.500 188.500 L 373.500 188.500 373.218 200.232 C 372.967 210.716, 372.727 212.075, 370.968 213.017 C 369.590 213.755, 368.410 213.755, 367.032 213.017 C 365.273 212.075, 365.033 210.716, 364.782 200.232 L 364.500 188.500 357.736 188.204 C 352.386 187.970, 350.849 188.229, 350.383 189.444 M 396 207.524 L 396 227.048 412.750 226.774 L 429.500 226.500 429.500 221 L 429.500 215.500 420.533 215.208 C 414.909 215.025, 411.280 214.466, 410.798 213.708 C 410.376 213.044, 410.024 206.988, 410.015 200.250 L 410 188 403 188 L 396 188 396 207.524 M 430.202 194.227 L 430.500 200.500 435.250 200.805 L 440 201.110 440.015 212.805 C 440.024 219.237, 440.402 225.086, 440.856 225.802 C 441.430 226.706, 443.640 227.011, 448.091 226.802 L 454.500 226.500 454.779 213.801 L 455.059 201.102 460.279 200.801 L 465.500 200.500 465.500 194.500 L 465.500 188.500 447.702 188.227 L 429.903 187.953 430.202 194.227 M 472.630 190.250 C 471.841 193.196, 471.821 223.369, 472.607 225.418 C 473.079 226.649, 474.744 227, 480.107 227 L 487 227 487 207.500 L 487 188 480.117 188 C 473.824 188, 473.182 188.193, 472.630 190.250 M 502.415 189.421 C 497.916 191.380, 495 195.575, 495 200.088 C 495 208.088, 499.236 212.172, 508.205 212.821 C 516.740 213.439, 515.252 214.710, 505.756 214.912 C 501.222 215.009, 497.144 215.456, 496.695 215.905 C 496.246 216.354, 496.019 218.921, 496.190 221.610 L 496.500 226.500 508.964 226.782 C 522.730 227.094, 525.918 226.329, 529.026 221.964 C 531.285 218.791, 531.696 210.464, 529.718 207.954 C 527.227 204.792, 523.478 203.040, 517.839 202.402 C 509.492 201.458, 511.685 200, 521.452 200 C 530.486 200, 531 199.677, 531 194 C 531 188.060, 530.858 187.997, 517.643 188.039 C 509.758 188.065, 504.418 188.549, 502.415 189.421 M 539.445 189.284 C 539.174 189.990, 539.075 198.652, 539.226 208.534 L 539.500 226.500 546.687 226.793 L 553.874 227.085 554.187 223.293 L 554.500 219.500 560.521 218.923 C 570.799 217.938, 575.419 213.023, 575.325 203.172 C 575.263 196.679, 573.146 193.401, 566.980 190.250 C 563.180 188.309, 561.024 188, 551.257 188 C 542.966 188, 539.805 188.343, 539.445 189.284 M 583.667 188.667 C 583.300 189.033, 583 197.808, 583 208.167 L 583 227 600 227 L 617 227 617 221.538 L 617 216.075 607.750 215.788 C 602.442 215.623, 598.500 215.074, 598.500 214.500 C 598.500 213.926, 602.442 213.377, 607.750 213.212 L 617 212.925 617 207.462 L 617 202 607.500 202 C 601.833 202, 598 201.596, 598 201 C 598 200.404, 601.833 200, 607.500 200 L 617 200 617 194 L 617 188 600.667 188 C 591.683 188, 584.033 188.300, 583.667 188.667 M 638.764 188.978 C 630.057 191.656, 624.714 198.720, 624.714 207.554 C 624.714 214.341, 627.430 219.617, 632.921 223.500 C 636.944 226.345, 637.758 226.517, 648.630 226.837 L 660.095 227.174 659.798 220.337 L 659.500 213.500 651.050 213.206 C 646.402 213.045, 642.015 212.427, 641.300 211.834 C 639.641 210.457, 639.605 204.373, 641.250 203.309 C 641.938 202.864, 646.325 202.275, 651 202 L 659.500 201.500 659.500 195 L 659.500 188.500 650.500 188.318 C 645.550 188.218, 640.269 188.515, 638.764 188.978 M 668.462 189.238 C 668.182 189.969, 668.075 198.652, 668.226 208.534 L 668.500 226.500 675.500 226.500 L 682.500 226.500 682.500 207.500 L 682.500 188.500 675.736 188.204 C 670.815 187.989, 668.834 188.270, 668.462 189.238 M 701.691 188.715 C 700.786 190.226, 690 224.290, 690 225.639 C 690 227.646, 702.616 227.527, 704.643 225.500 C 705.633 224.510, 708.123 224, 711.964 224 C 716.217 224, 717.941 224.404, 718.362 225.500 C 719.118 227.471, 733.005 227.709, 732.991 225.750 C 732.986 225.063, 730.320 216.400, 727.068 206.500 L 721.154 188.500 711.658 188.215 C 706.435 188.058, 701.950 188.283, 701.691 188.715 M 740 207.524 L 740 227.048 756.750 226.774 L 773.500 226.500 773.500 221 L 773.500 215.500 764.533 215.208 C 758.909 215.025, 755.280 214.466, 754.798 213.708 C 754.376 213.044, 754.024 206.988, 754.015 200.250 L 754 188 747 188 L 740 188 740 207.524 M 780.462 189.238 C 780.182 189.969, 780.075 198.652, 780.226 208.534 L 780.500 226.500 787.772 226.794 L 795.043 227.088 794.772 207.794 L 794.500 188.500 787.736 188.204 C 782.815 187.989, 780.834 188.270, 780.462 189.238 M 802 194.425 L 802 200.895 807.250 201.198 L 812.500 201.500 812.780 214.250 L 813.060 227 820 227 L 826.940 227 827.220 214.250 L 827.500 201.500 832.500 201 L 837.500 200.500 837.500 194.500 L 837.500 188.500 819.750 188.227 L 802 187.954 802 194.425 M 843 189.146 C 843 189.776, 845.700 194.660, 849 200 C 854.851 209.467, 855 209.884, 855 216.772 C 855 226.980, 855.016 227, 863.107 227 L 870 227 870 218.989 L 870 210.978 876.500 200.463 C 880.075 194.679, 883 189.509, 883 188.973 C 883 188.436, 879.889 188, 876.048 188 L 869.096 188 865.973 192.539 L 862.850 197.079 861.074 194.789 C 860.097 193.530, 858.765 191.488, 858.114 190.250 C 857.059 188.245, 856.170 188, 849.965 188 C 845.397 188, 843 188.394, 843 189.146 M 554 204 L 554 208.121 557.649 207.810 C 561.950 207.445, 564.082 204.946, 562.394 202.250 C 561.755 201.230, 559.775 200.371, 557.649 200.190 L 554 199.879 554 204 M 138.718 203.648 C 138.419 204.131, 138.566 210.595, 139.044 218.013 C 139.522 225.431, 139.933 236.413, 139.957 242.418 C 139.981 248.423, 140.497 256.298, 141.106 259.918 C 142.325 267.181, 147.158 276.909, 151.669 281.182 C 155.095 284.428, 164.619 289.538, 169.061 290.513 C 178.262 292.534, 191.333 290.089, 197.063 285.274 C 207.359 276.624, 212.712 268.214, 213.153 260 C 213.286 257.525, 213.306 249.537, 213.197 242.250 L 213 229 202.750 229.015 C 197.113 229.024, 191.924 229.396, 191.221 229.842 C 190.256 230.454, 190.010 234.204, 190.221 245.077 C 190.483 258.645, 190.364 259.717, 188.205 263.160 C 185.564 267.370, 179.223 270.427, 175.038 269.508 C 170.770 268.571, 165.189 263.343, 164.040 259.206 C 163.474 257.168, 163.009 249.110, 163.006 241.299 C 162.997 219.616, 160.854 212.748, 152.251 206.829 C 147.781 203.753, 139.811 201.879, 138.718 203.648 M 710.123 206.315 C 708.258 210.991, 708.672 213, 711.500 213 C 714.369 213, 714.666 211.204, 712.578 206.500 L 711.245 203.500 710.123 206.315 M 413.250 261.641 C 412.318 262.033, 412 266.581, 412 279.502 C 412 289.036, 412.273 297.548, 412.607 298.418 C 413.079 299.647, 414.740 300, 420.059 300 L 426.905 300 427.202 293.750 L 427.500 287.500 432.500 287.500 L 437.500 287.500 437.798 293.750 L 438.095 300 445.069 300 L 452.043 300 451.772 280.750 L 451.500 261.500 444.750 261.204 L 438 260.909 438 266.919 C 438 274.294, 437.250 274.883, 428.798 274.148 C 427.428 274.029, 427.037 272.781, 426.798 267.750 L 426.500 261.500 420.500 261.307 C 417.200 261.201, 413.938 261.351, 413.250 261.641 M 470.204 263.128 C 454.550 270.877, 456.849 294.702, 473.724 299.608 C 487.912 303.733, 500.678 295.928, 501.796 282.445 C 502.058 279.291, 501.709 275.644, 500.966 273.755 C 499.244 269.379, 494.254 264.162, 490.128 262.422 C 484.991 260.256, 475.313 260.599, 470.204 263.128 M 514.842 263.021 C 509.744 265.714, 507.347 271.860, 509.201 277.486 C 510.969 282.851, 515.757 286, 522.148 286 C 524.817 286, 527 286.450, 527 287 C 527 287.588, 523.500 288, 518.500 288 L 510 288 510 294 L 510 300 522.599 300 C 537.280 300, 540.897 298.845, 543.520 293.316 C 544.717 290.795, 545.009 288.544, 544.543 285.436 C 543.624 279.307, 539.833 276.321, 531.730 275.342 L 525.500 274.590 530 273.869 C 532.475 273.473, 536.638 273.115, 539.250 273.074 L 544 273 544 267 L 544 261 531.250 261.044 C 520.634 261.081, 517.888 261.412, 514.842 263.021 M 553.667 261.667 C 553.300 262.033, 553 270.808, 553 281.167 L 553 300 560 300 L 567 300 567 296.500 C 567 293.106, 567.117 293, 570.851 293 C 586.858 293, 595.456 276.527, 584.856 266.164 C 582.848 264.201, 579.974 262.731, 576.816 262.054 C 571.395 260.891, 554.721 260.612, 553.667 261.667 M 596.802 261.706 C 596.598 262.143, 596.446 270.825, 596.465 281 L 596.500 299.500 603.772 299.794 L 611.043 300.088 610.772 280.794 L 610.500 261.500 603.836 261.206 C 600.171 261.045, 597.005 261.270, 596.802 261.706 M 617.658 262.727 C 617.388 263.702, 617.471 266.525, 617.842 269 C 618.505 273.413, 618.585 273.495, 622.009 273.237 C 628.479 272.749, 628.566 272.965, 628.843 290.250 L 629 300 635.857 300 L 642.713 300 643.341 291.250 C 643.687 286.438, 643.733 281.089, 643.443 279.364 C 642.722 275.076, 645.122 272.775, 649.884 273.187 L 653.500 273.500 653.500 267.500 L 653.500 261.500 635.825 261.227 C 619.622 260.977, 618.108 261.102, 617.658 262.727 M 666.726 261.715 C 666.487 262.147, 664.821 267.225, 663.023 273 C 661.226 278.775, 658.685 286.684, 657.378 290.575 C 656.070 294.467, 655 298.179, 655 298.825 C 655 300.713, 668.631 300.405, 669.362 298.500 C 669.784 297.399, 671.522 297, 675.897 297 C 679.862 297, 682.359 297.502, 683.357 298.500 C 685.448 300.591, 698 300.640, 698 298.558 C 698 297.101, 692.721 279.976, 688.580 268 L 686.333 261.500 676.747 261.215 C 671.475 261.058, 666.966 261.283, 666.726 261.715 M 705.228 280.206 L 705.500 299.500 722 299.500 L 738.500 299.500 738.500 294 L 738.500 288.500 729.500 288 L 720.500 287.500 720 274.500 L 719.500 261.500 712.228 261.206 L 704.957 260.912 705.228 280.206 M 568 277 C 568 280.909, 568.080 281, 571.521 281 C 574.296 281, 575.282 280.476, 576.168 278.530 C 577.693 275.183, 575.802 273, 571.378 273 C 568.104 273, 568 273.123, 568 277 M 475.997 276.503 C 473.020 280.091, 475.939 287, 480.432 287 C 485.851 287, 488.862 281.037, 485.608 276.750 C 483.951 274.568, 477.736 274.408, 475.997 276.503 M 675.181 279.911 C 673.448 284.881, 673.691 286, 676.500 286 C 679.350 286, 679.656 284.251, 677.636 279.512 L 676.362 276.524 675.181 279.911 M 298.085 326.947 C 297.380 327.383, 296.990 329.164, 297.176 331.105 C 297.426 333.725, 297.956 334.500, 299.500 334.500 C 301.076 334.500, 301.564 333.732, 301.803 330.877 C 302.116 327.129, 300.521 325.442, 298.085 326.947 M 304.759 327.197 C 304.487 327.914, 304.481 329.962, 304.746 331.750 C 305.091 334.085, 305.753 335, 307.094 335 C 309.062 335, 310.453 331.605, 309.828 328.329 C 309.419 326.181, 305.480 325.301, 304.759 327.197 M 455.571 327.571 C 454.707 328.436, 454 329.529, 454 330 C 454 330.913, 456.807 334, 457.637 334 C 459.402 334, 462 331.618, 462 330 C 462 328.939, 461.130 327.605, 460.066 327.035 C 457.564 325.696, 457.431 325.712, 455.571 327.571 M 386.713 327.621 C 385.188 329.146, 386.033 332.876, 388.048 333.515 C 390.675 334.349, 393.182 332.276, 392.798 329.588 C 392.498 327.487, 388.227 326.106, 386.713 327.621 M 320.437 330.303 C 320.162 331.019, 320.064 337.432, 320.219 344.553 L 320.500 357.500 325 357.659 C 327.475 357.746, 331.088 357.928, 333.029 358.063 C 338.037 358.410, 340.575 356.680, 342.518 351.593 C 343.920 347.922, 344.008 346.553, 343.032 343.598 C 341.203 338.055, 337.503 335.678, 331.750 336.351 L 327 336.906 327 332.953 C 327 329.218, 326.833 329, 323.969 329 C 322.301 329, 320.712 329.586, 320.437 330.303 M 404 343.500 L 404 358.127 407.250 357.813 L 410.500 357.500 410.500 343.500 L 410.500 329.500 407.250 329.187 L 404 328.873 404 343.500 M 437 332.878 C 437 336.846, 435.720 338.974, 434.510 337.016 C 434.165 336.457, 432.149 336, 430.030 336 C 426.956 336, 425.655 336.622, 423.589 339.077 C 420.133 343.184, 419.470 346.364, 421.064 351.193 C 422.679 356.087, 425.727 358.249, 430.727 358.049 C 432.802 357.965, 436.525 357.808, 439 357.699 L 443.500 357.500 443.500 343.500 L 443.500 329.500 440.250 329.187 C 437.072 328.880, 437 328.962, 437 332.878 M 777.607 330.582 C 777.273 331.452, 777 333.493, 777 335.117 C 777 337.727, 776.775 337.950, 775.066 337.035 C 767.662 333.073, 760.223 339.412, 761.279 348.783 C 761.968 354.896, 765.387 358.269, 770.623 358.003 C 772.755 357.894, 776.638 357.863, 779.250 357.934 L 784 358.063 784 343.532 L 784 329 781.107 329 C 779.391 329, 777.967 329.644, 777.607 330.582 M 556.250 330.775 C 555.005 330.977, 554 331.854, 554 332.741 C 554 333.622, 553.266 335.154, 552.368 336.146 C 550.859 337.813, 550.859 338.136, 552.368 340.439 C 553.280 341.831, 554 344.960, 554 347.531 C 554 354.968, 556.217 357.959, 561.750 357.985 C 564.462 357.997, 565 357.626, 565 355.741 C 565 354.498, 564.100 352.919, 563 352.232 C 561.482 351.284, 561 349.900, 561 346.492 C 561 342.667, 561.297 342, 563 342 C 564.538 342, 565 341.333, 565 339.117 C 565 337.074, 564.417 336.081, 563 335.710 C 561.847 335.409, 561 334.346, 561 333.201 C 561 330.969, 559.569 330.238, 556.250 330.775 M 661 332.814 C 661 333.882, 660.325 335.315, 659.500 336 C 658.675 336.685, 658 338.035, 658 339 C 658 339.965, 658.675 341.315, 659.500 342 C 660.514 342.841, 661 345.101, 661 348.967 C 661 355.879, 662.971 358.317, 668.156 357.820 C 670.674 357.579, 671.575 356.976, 671.802 355.380 C 672.009 353.934, 671.453 353.090, 670.052 352.724 C 668.329 352.273, 668 351.389, 668 347.210 C 668 343.074, 668.338 342.145, 670 341.710 C 672.644 341.019, 672.686 336.992, 670.056 336.304 C 668.987 336.025, 667.975 334.829, 667.806 333.648 C 667.378 330.641, 661 329.860, 661 332.814 M 353.713 336.621 C 353.321 337.013, 353 340.676, 353 344.762 C 353 350.628, 353.428 352.792, 355.033 355.046 C 357.015 357.829, 357.287 357.899, 366.065 357.857 L 375.066 357.815 374.783 347.157 L 374.500 336.500 371.500 336.500 L 368.500 336.500 368 343.897 C 367.622 349.485, 367.072 351.562, 365.750 352.392 C 362.280 354.569, 360.548 352.010, 360 343.897 C 359.525 336.876, 359.371 336.485, 356.963 336.204 C 355.567 336.041, 354.104 336.229, 353.713 336.621 M 386.713 336.621 C 386.321 337.013, 386 342.012, 386 347.730 L 386 358.127 389.250 357.813 L 392.500 357.500 392.500 347 C 392.500 336.503, 392.499 336.500, 389.963 336.204 C 388.567 336.041, 387.104 336.229, 386.713 336.621 M 455 346.937 L 455 358 457.981 358 C 461.721 358, 462.191 356.398, 461.795 345 L 461.500 336.500 458.250 336.187 L 455 335.873 455 346.937 M 472.522 336.811 C 471.793 337.540, 471.866 354.487, 472.607 356.418 C 472.967 357.356, 474.391 358, 476.107 358 C 478.980 358, 479 357.957, 479 351.934 C 479 344.676, 480.212 342, 483.500 342 C 486.795 342, 488 344.677, 488 351.998 L 488 358.127 491.250 357.813 L 494.500 357.500 494.500 349.328 C 494.500 342.152, 494.217 340.856, 492.175 338.684 C 490.053 336.427, 489.118 336.215, 481.447 336.250 C 476.826 336.271, 472.810 336.524, 472.522 336.811 M 508.251 337.537 C 503.563 340.820, 503.283 352.231, 507.790 356.310 C 509.813 358.141, 514.145 358.647, 518.250 357.531 C 521.373 356.682, 521.957 358.310, 519.656 361.455 C 518.625 362.866, 517.637 363.124, 515.406 362.566 C 513.808 362.166, 510.813 361.603, 508.750 361.314 C 504.127 360.668, 503.888 362.042, 507.923 366.077 C 510.365 368.519, 511.659 369, 515.788 369 C 525.538 369, 528.309 363.930, 527.810 347 C 527.512 336.904, 527.411 336.487, 525.195 336.173 C 523.927 335.994, 522.352 336.275, 521.695 336.800 C 521.029 337.331, 519.614 337.396, 518.500 336.947 C 515.229 335.628, 510.595 335.895, 508.251 337.537 M 575.429 337.325 C 575.149 338.054, 575.051 342.891, 575.210 348.075 L 575.500 357.500 578.750 357.813 L 582 358.127 582.014 353.313 C 582.034 345.984, 582.861 343.978, 586.130 343.324 C 588.610 342.828, 589 342.291, 589 339.375 C 589 335.799, 588.132 335.324, 584.827 337.093 C 583.350 337.883, 582.483 337.883, 581.693 337.093 C 580.171 335.571, 576.043 335.725, 575.429 337.325 M 598.713 336.621 C 598.321 337.013, 598 340.431, 598 344.216 C 598 351.601, 599.766 356.503, 602.739 357.374 C 606.036 358.340, 619.486 357.759, 620.235 356.619 C 621.121 355.269, 621.250 339.814, 620.393 337.582 C 620.033 336.644, 618.609 336, 616.893 336 C 614.039 336, 614 336.078, 613.985 341.750 C 613.963 350.392, 611.075 354.646, 607 352.037 C 605.981 351.384, 605.340 348.742, 605 343.788 C 604.526 336.884, 604.366 336.484, 601.963 336.204 C 600.567 336.041, 599.104 336.229, 598.713 336.621 M 633.189 338.039 C 630.635 340.418, 630.344 344.201, 632.545 346.402 C 633.394 347.251, 635.869 348.480, 638.045 349.132 C 640.220 349.783, 642 350.920, 642 351.658 C 642 353.212, 638.417 353.484, 637.500 352 C 636.671 350.659, 631 350.716, 631 352.066 C 631 354.628, 633.295 356.987, 636.701 357.928 C 643.246 359.735, 649 356.962, 649 352 C 649 348.711, 646.419 346.231, 641.618 344.905 C 639.422 344.299, 638 343.289, 638 342.336 C 638 341.165, 638.571 340.947, 640.250 341.477 C 648.056 343.941, 650.765 342.674, 646.599 338.508 C 643.330 335.239, 636.452 334.999, 633.189 338.039 M 699.750 337.080 C 698.787 337.641, 697.325 339.405, 696.500 341 C 691.964 349.772, 699.321 361.110, 707.525 357.990 C 708.809 357.502, 711.511 357.371, 713.530 357.699 C 715.708 358.052, 717.470 357.858, 717.864 357.220 C 718.229 356.630, 718.439 353.301, 718.330 349.823 C 718.221 346.345, 718.103 341.813, 718.066 339.750 C 718.005 336.282, 717.779 336, 715.059 336 C 713.441 336, 711.839 336.451, 711.498 337.003 C 711.084 337.673, 710.257 337.673, 709.005 337.003 C 706.617 335.725, 702.011 335.763, 699.750 337.080 M 730 347 L 730 358 733 358 L 736 358 736 351.934 C 736 344.676, 737.212 342, 740.500 342 C 743.788 342, 745 344.676, 745 351.934 L 745 358 748 358 L 751 358 751 349.073 C 751 340.619, 750.860 340.035, 748.365 338.073 C 745.536 335.847, 740.087 335.313, 738.313 337.087 C 737.530 337.870, 737.038 337.870, 736.554 337.087 C 736.184 336.489, 734.559 336, 732.941 336 L 730 336 730 347 M 328.035 343.934 C 326.409 346.972, 326.814 349.756, 329.115 351.368 C 331.259 352.870, 333.897 352.527, 335.235 350.573 C 336.383 348.895, 336.126 344.526, 334.800 343.200 C 332.963 341.363, 329.192 341.772, 328.035 343.934 M 428.496 344.365 C 425.659 348.696, 429.667 354.319, 433.955 352.024 C 437.209 350.283, 437.941 346.084, 435.429 343.571 C 433.165 341.307, 430.284 341.637, 428.496 344.365 M 512.571 343.571 C 510.059 346.084, 510.791 350.283, 514.045 352.024 C 518.333 354.319, 522.341 348.696, 519.504 344.365 C 517.716 341.637, 514.835 341.307, 512.571 343.571 M 703.067 343.874 C 701.355 347.073, 701.824 349.838, 704.359 351.500 C 707.188 353.353, 709.357 352.707, 710.778 349.588 C 713.129 344.429, 705.712 338.933, 703.067 343.874 M 768.950 344.093 C 766.449 348.766, 770.839 354.367, 774.977 351.782 C 777.261 350.356, 777.760 345.160, 775.800 343.200 C 773.903 341.303, 770.184 341.788, 768.950 344.093 M 415 379.709 C 412.423 380.657, 410 383.236, 410 385.033 C 410 385.980, 409.325 387.315, 408.500 388 C 407.675 388.685, 407 390.035, 407 391 C 407 391.965, 407.675 393.315, 408.500 394 C 409.582 394.898, 410 397.273, 410 402.515 C 410 410.281, 410.719 411.399, 414.750 409.901 C 416.810 409.135, 417 408.429, 417 401.532 C 417 395.504, 417.299 394, 418.500 394 C 420.616 394, 420.420 389.351, 418.250 388.050 C 416.583 387.051, 416.583 386.937, 418.250 385.640 C 419.212 384.892, 420 383.092, 420 381.640 C 420 378.978, 418.531 378.411, 415 379.709 M 687.713 379.621 C 686.272 381.062, 687.020 384.872, 688.859 385.455 C 692.008 386.455, 694.140 385.017, 693.804 382.122 C 693.577 380.160, 692.861 379.426, 690.963 379.204 C 689.567 379.041, 688.104 379.229, 687.713 379.621 M 818.190 382.750 C 818.439 385.762, 818.943 386.563, 820.750 386.820 C 822.767 387.106, 823 386.718, 823 383.070 C 823 379.370, 822.767 379, 820.440 379 C 818.092 379, 817.905 379.312, 818.190 382.750 M 826 383 C 826 386.600, 826.250 387, 828.500 387 C 830.750 387, 831 386.600, 831 383 C 831 379.400, 830.750 379, 828.500 379 C 826.250 379, 826 379.400, 826 383 M 267 395.500 C 267 404.417, 267.385 410.048, 268 410.125 C 272.492 410.687, 272.485 410.697, 273.047 403.482 C 273.688 395.265, 274.286 394, 277.524 394 C 280.786 394, 282 396.695, 282 403.934 C 282 409.953, 282.022 410, 284.883 410 C 288.389 410, 288.769 408.864, 288.397 399.500 C 288.153 393.373, 287.792 392.219, 285.503 390.250 C 282.662 387.805, 280.488 387.484, 276.650 388.943 C 273.834 390.014, 273 388.865, 273 383.918 C 273 381.342, 272.648 381, 270 381 L 267 381 267 395.500 M 521 395.563 L 521 410.127 524.250 409.813 L 527.500 409.500 527.794 402.258 C 528.068 395.500, 528.252 394.975, 530.557 394.396 C 534.711 393.354, 536 395.435, 536 403.186 L 536 410.127 539.250 409.813 L 542.500 409.500 542.792 402.925 C 543.137 395.146, 542.040 391.728, 538.445 389.372 C 536.261 387.941, 535.123 387.821, 531.901 388.681 C 528.052 389.708, 528 389.685, 528 386.943 C 528 382.424, 527.016 381, 523.893 381 L 521 381 521 395.563 M 500 385.031 C 500 386.149, 499.325 387.322, 498.500 387.638 C 497.675 387.955, 497 389.323, 497 390.678 C 497 392.034, 497.675 393.818, 498.500 394.643 C 499.454 395.597, 500 398.062, 500 401.416 C 500 407.751, 501.920 410, 507.329 410 C 510.578 410, 511 409.713, 511 407.500 C 511 405.686, 510.464 405, 509.045 405 C 507.613 405, 506.920 404.089, 506.450 401.587 C 505.626 397.193, 506.557 394.349, 509.033 393.702 C 511.626 393.023, 511.605 389.327, 509.002 388.501 C 507.904 388.152, 506.730 386.772, 506.394 385.433 C 505.577 382.177, 500 381.826, 500 385.031 M 666.713 383.621 C 666.321 384.013, 666 385.110, 666 386.060 C 666 387.009, 665.325 388.045, 664.500 388.362 C 663.675 388.678, 663 389.865, 663 391 C 663 392.135, 663.675 393.322, 664.500 393.638 C 665.589 394.056, 666 395.767, 666 399.884 C 666 407.411, 667.806 410, 673.057 410 C 676.545 410, 677 409.725, 677 407.617 C 677 406.074, 676.294 405.049, 675 404.710 C 673.338 404.276, 673 403.346, 673 399.210 C 673 395.074, 673.338 394.145, 675 393.710 C 677.644 393.019, 677.686 388.992, 675.056 388.304 C 673.987 388.025, 672.975 386.829, 672.806 385.648 C 672.499 383.490, 668.255 382.079, 666.713 383.621 M 769.378 384.750 C 769.070 385.712, 768.319 387.540, 767.707 388.812 C 766.877 390.538, 766.900 391.611, 767.798 393.048 C 768.459 394.107, 769 396.983, 769 399.439 C 769 405.016, 770.713 408.912, 773.421 409.496 C 778.230 410.532, 779.292 410.409, 780.367 408.692 C 781.311 407.185, 781.041 406.546, 778.750 404.858 C 776.556 403.243, 776 402.034, 776 398.885 C 776 396.038, 776.488 394.757, 777.750 394.292 C 781.644 392.855, 782.062 389.354, 778.500 388 C 776.969 387.418, 776 386.264, 776 385.025 C 776 383.437, 775.346 383, 772.969 383 C 770.961 383, 769.748 383.591, 769.378 384.750 M 304.256 388.975 C 301.283 390.242, 298.007 395.758, 298.007 399.500 C 298.007 407.201, 305.785 412.546, 313.355 410.048 C 324.857 406.252, 323.005 389.467, 310.968 388.412 C 308.510 388.196, 305.490 388.450, 304.256 388.975 M 331.667 388.667 C 331.300 389.033, 331 396.458, 331 405.167 L 331 421 333.893 421 C 337.257 421, 338 419.629, 338 413.418 C 338 408.607, 338.136 408.467, 341.213 410.114 C 344.370 411.803, 350.143 409.720, 352.267 406.125 C 356.152 399.549, 353.082 389.669, 346.787 388.488 C 344.968 388.147, 342.262 388.330, 340.775 388.895 C 339.058 389.548, 337.854 389.572, 337.476 388.962 C 336.801 387.868, 332.675 387.659, 331.667 388.667 M 368.500 389.103 C 364.708 391.298, 363.045 394.354, 363.022 399.173 C 362.981 407.844, 370.449 412.928, 378.367 409.620 C 381.790 408.190, 384.529 404.863, 383.298 403.631 C 382.269 402.602, 377.488 402.912, 376.315 404.085 C 374.737 405.663, 370.575 404.786, 370.196 402.795 C 369.917 401.335, 370.921 401.048, 377.185 400.795 L 384.500 400.500 384.337 397.110 C 384.108 392.333, 380.381 388.890, 374.868 388.364 C 372.465 388.134, 369.600 388.467, 368.500 389.103 M 433.763 389.509 C 425.354 394.245, 426.665 407.321, 435.824 410.065 C 443.856 412.472, 450.988 407.160, 450.996 398.766 C 451.004 390.775, 441.029 385.416, 433.763 389.509 M 461.430 389.321 C 461.151 390.048, 461.053 395.103, 461.212 400.554 C 461.497 410.378, 461.522 410.466, 464 410.483 C 467.417 410.506, 467.967 409.426, 467.985 402.663 C 467.999 397.101, 468.141 396.773, 471.002 395.693 C 475.596 393.959, 476.335 389, 472 389 C 470.965 389, 469.804 389.508, 469.421 390.128 C 468.944 390.900, 468.435 390.742, 467.812 389.628 C 466.719 387.676, 462.146 387.456, 461.430 389.321 M 558.256 389.029 C 555.366 390.191, 552.009 395.707, 552.004 399.300 C 551.994 406.269, 558.669 411.847, 565.486 410.569 C 569.105 409.890, 573 406.667, 573 404.352 C 573 403.090, 572.263 402.907, 569.250 403.421 C 561.910 404.672, 560.569 404.573, 560.204 402.750 C 559.897 401.216, 560.720 401, 566.868 401 C 570.726 401, 574.166 400.541, 574.512 399.980 C 574.859 399.420, 574.614 397.360, 573.968 395.403 C 571.998 389.432, 564.658 386.455, 558.256 389.029 M 599.667 388.667 C 599.300 389.033, 599 396.487, 599 405.230 L 599 421.127 602.250 420.813 C 605.460 420.504, 605.504 420.429, 605.799 414.793 L 606.097 409.086 608.722 410.085 C 614.851 412.415, 620.901 408.062, 621.727 400.728 C 622.677 392.297, 616.792 386.501, 609.541 388.726 C 607.636 389.311, 605.630 389.380, 604.855 388.889 C 603.228 387.858, 600.588 387.745, 599.667 388.667 M 634.707 390.016 C 630.976 392.951, 629.591 397.901, 631.096 402.924 C 632.706 408.300, 635.171 410.378, 639.773 410.239 C 641.823 410.178, 645.878 410.106, 648.784 410.080 L 654.068 410.034 653.784 399.267 C 653.510 388.883, 653.418 388.488, 651.195 388.173 C 649.927 387.994, 648.268 388.362, 647.509 388.993 C 646.512 389.820, 645.572 389.841, 644.130 389.069 C 641.073 387.433, 637.539 387.788, 634.707 390.016 M 687.713 388.621 C 687.321 389.013, 687 393.983, 687 399.667 L 687 410 690.534 410 L 694.068 410 693.784 399.250 C 693.502 388.571, 693.483 388.498, 690.963 388.204 C 689.567 388.041, 688.104 388.229, 687.713 388.621 M 710 389.057 C 705.995 390.710, 704.047 394.008, 704.022 399.173 C 703.981 407.907, 711.339 412.974, 719.258 409.666 C 722.771 408.198, 725.544 404.878, 724.298 403.631 C 723.269 402.602, 718.488 402.912, 717.315 404.085 C 715.737 405.663, 711.575 404.786, 711.196 402.795 C 710.917 401.335, 711.921 401.048, 718.185 400.795 L 725.500 400.500 725.217 397 C 725.054 394.973, 723.960 392.522, 722.620 391.175 C 719.976 388.520, 713.808 387.484, 710 389.057 M 736.084 389.399 C 735.334 390.302, 735.025 394.114, 735.211 400.149 L 735.500 409.500 738.750 409.813 L 742 410.127 742 404.628 C 742 397.122, 743.304 394, 746.440 394 C 749.793 394, 751 396.629, 751 403.934 C 751 407.270, 751.450 410.056, 752 410.125 C 752.550 410.194, 753.563 410.334, 754.250 410.436 C 757.017 410.849, 758 408.668, 757.996 402.128 C 757.990 391.458, 753.092 386.017, 745.928 388.721 C 744.367 389.310, 742.632 389.382, 741.855 388.889 C 739.832 387.608, 737.391 387.823, 736.084 389.399 M 794.242 389.034 C 793 389.533, 791.465 391.080, 790.831 392.471 C 789.034 396.417, 791.026 399.634, 796.204 401.147 C 800.824 402.497, 802.459 403.941, 801.010 405.390 C 800.467 405.933, 799.092 405.635, 797.587 404.649 C 794.391 402.555, 790 402.469, 790 404.500 C 790 409.167, 798.322 412.146, 804.338 409.632 C 807.559 408.286, 808 407.683, 808 404.624 C 808 400.963, 804.443 397.016, 801.115 396.985 C 798.298 396.958, 796.359 395.241, 797.668 393.932 C 798.537 393.063, 799.551 393.213, 801.798 394.540 C 807.318 397.801, 810.355 393.997, 805.365 390.073 C 802.612 387.907, 798.095 387.486, 794.242 389.034 M 306.571 395.571 C 304.580 397.563, 304.575 399.948, 306.557 402.777 C 308.449 405.479, 310.152 405.594, 312.345 403.171 C 316.789 398.260, 311.217 390.926, 306.571 395.571 M 339.571 395.571 C 336.621 398.522, 338.576 405, 342.416 405 C 343.117 405, 344.435 404.177, 345.345 403.171 C 349.789 398.260, 344.217 390.926, 339.571 395.571 M 370.713 394.621 C 369.163 396.170, 370.165 397, 373.583 397 C 376.002 397, 377.033 396.594, 376.756 395.750 C 376.297 394.352, 371.818 393.515, 370.713 394.621 M 436.571 395.571 C 435.707 396.436, 435 398.166, 435 399.416 C 435 401.695, 437.767 405, 439.674 405 C 441.358 405, 444 401.484, 444 399.243 C 444 396.867, 441.539 394, 439.500 394 C 438.754 394, 437.436 394.707, 436.571 395.571 M 560.713 394.621 C 559.163 396.170, 560.165 397, 563.583 397 C 566.002 397, 567.033 396.594, 566.756 395.750 C 566.297 394.352, 561.818 393.515, 560.713 394.621 M 607.200 395.200 C 606.540 395.860, 606 397.895, 606 399.721 C 606 402.334, 606.559 403.298, 608.617 404.235 C 610.928 405.288, 611.456 405.155, 613.117 403.103 C 615.412 400.269, 615.520 397.663, 613.429 395.571 C 611.557 393.700, 608.861 393.539, 607.200 395.200 M 638.378 396.545 C 636.959 398.711, 636.905 399.454, 638.015 401.529 C 639.774 404.815, 642.680 405.600, 645.072 403.435 C 647.502 401.236, 647.546 397.804, 645.171 395.655 C 642.574 393.305, 640.307 393.602, 638.378 396.545 M 711.713 394.621 C 710.163 396.170, 711.165 397, 714.583 397 C 717.002 397, 718.033 396.594, 717.756 395.750 C 717.297 394.352, 712.818 393.515, 711.713 394.621" stroke="none" fill="#505b97" fill-rule="evenodd"/><path d="M 0 266.001 L 0 532.002 465.250 531.751 L 930.500 531.500 930.752 265.750 L 931.004 -0 465.502 -0 L 0 0 0 266.001 M 0.493 266.500 C 0.493 412.800, 0.608 472.501, 0.750 399.169 C 0.892 325.838, 0.892 206.138, 0.750 133.169 C 0.608 60.201, 0.493 120.200, 0.493 266.500 M 165.732 84.037 C 154.824 85.872, 144.915 93.366, 139.885 103.583 C 136.151 111.167, 135.336 118.764, 136.471 135.409 L 137.192 146 148.096 146 L 159 146 159 131.450 C 159 115.170, 159.801 112.312, 165.299 108.960 C 172.062 104.836, 181.707 107.661, 184.614 114.618 C 185.625 117.039, 186.269 123.239, 186.610 133.846 C 186.887 142.456, 187.618 151.525, 188.236 154 C 190.546 163.262, 197.941 170.410, 206 171.170 L 209.500 171.500 209.795 154 C 209.958 144.375, 209.626 130.481, 209.058 123.125 C 208.198 111.992, 207.579 108.838, 205.366 104.316 C 200.137 93.628, 190.390 86.283, 178.526 84.089 C 172.064 82.895, 172.512 82.897, 165.732 84.037 M 485.496 116.006 C 485.154 116.559, 485.345 118.472, 485.921 120.256 C 486.496 122.040, 488.151 127.550, 489.598 132.500 C 491.045 137.450, 493.120 144.329, 494.209 147.788 L 496.188 154.075 504.738 153.788 C 514.356 153.464, 513.958 153.776, 516.581 144.500 C 518.978 136.022, 520.647 130.412, 522.829 123.500 C 523.870 120.200, 524.504 116.918, 524.238 116.207 C 523.893 115.286, 521.850 114.999, 517.138 115.207 L 510.523 115.500 508.134 125.250 C 506.821 130.613, 505.384 135, 504.940 135 C 504.032 135, 503.793 134.284, 501.439 124.500 C 500.513 120.650, 499.305 116.938, 498.755 116.250 C 497.551 114.745, 486.402 114.540, 485.496 116.006 M 531.445 116.284 C 531.174 116.990, 531.075 125.652, 531.226 135.534 L 531.500 153.500 548.225 153.774 L 564.950 154.048 565.549 151.662 C 565.878 150.350, 566.002 147.752, 565.824 145.888 L 565.500 142.500 556 141.941 L 546.500 141.383 553.500 141.050 C 557.350 140.866, 561.526 140.693, 562.779 140.665 C 565.370 140.607, 566.327 138.162, 565.824 132.888 L 565.500 129.500 556.250 129.212 C 544.369 128.843, 544.072 127, 555.893 127 C 565.539 127, 566 126.726, 566 121 C 566 114.906, 566.278 115, 548.362 115 C 535.915 115, 531.818 115.311, 531.445 116.284 M 575 134.400 L 575 154 582 154 C 588.737 154, 589 153.909, 589 151.582 C 589 144.849, 592.749 144.059, 596.500 150 L 599.025 154 606.013 154 C 610.018 154, 613 153.572, 613 152.997 C 613 152.445, 611.696 149.900, 610.103 147.340 L 607.206 142.685 609.103 138.260 C 612.676 129.925, 610.830 122.894, 603.678 117.592 C 601.229 115.776, 599.148 115.454, 587.928 115.150 L 575 114.799 575 134.400 M 618.689 115.644 C 618.310 116.023, 618 118.703, 618 121.599 C 618 127.422, 618.647 127.985, 625 127.695 L 628.500 127.536 628.779 140.768 L 629.058 154 635.999 154 L 642.940 154 643.220 141.250 L 643.500 128.500 646.500 128.226 C 654.055 127.535, 654.126 127.467, 653.799 121.219 L 653.500 115.500 636.439 115.227 C 627.056 115.077, 619.069 115.265, 618.689 115.644 M 661.445 116.284 C 661.174 116.990, 661.075 125.652, 661.226 135.534 L 661.500 153.500 678.301 153.774 L 695.101 154.049 694.801 148.274 L 694.500 142.500 685 141.941 C 676.684 141.452, 676.248 141.343, 681.500 141.065 C 684.800 140.890, 688.400 140.647, 689.500 140.525 C 690.600 140.402, 692.288 140.234, 693.250 140.151 C 694.686 140.027, 695 139.014, 695 134.500 L 695 129 686 129 C 674.385 129, 674.178 127.171, 685.750 126.789 L 694.500 126.500 694.800 120.750 L 695.100 115 678.519 115 C 665.944 115, 661.818 115.310, 661.445 116.284 M 703 116.182 C 703 116.832, 705.475 121.083, 708.500 125.629 C 711.525 130.176, 714 134.187, 714 134.544 C 714 134.901, 711.525 138.990, 708.500 143.631 C 705.475 148.272, 703 152.503, 703 153.034 C 703 153.565, 706.147 154, 709.994 154 C 716.978 154, 716.991 153.995, 719.823 150.086 C 722.906 145.830, 723.467 145.883, 726.866 150.750 C 729.056 153.886, 729.380 154, 736.068 154 C 740.957 154, 742.995 153.632, 742.982 152.750 C 742.972 152.063, 740.497 147.727, 737.483 143.115 L 732.003 134.731 734.192 131.115 C 735.395 129.127, 737.870 125.256, 739.690 122.513 C 744.407 115.406, 744.209 115, 736.014 115 L 729.028 115 726.381 119 C 724.925 121.200, 723.457 122.983, 723.117 122.962 C 722.778 122.941, 721.267 121.141, 719.760 118.962 L 717.019 115 710.010 115 C 705.284 115, 703 115.385, 703 116.182 M 589.390 128.427 C 587.624 133.028, 590.470 135.852, 595.579 134.570 C 597.438 134.103, 598 133.294, 598 131.088 C 598 129.390, 597.353 127.966, 596.418 127.607 C 593.617 126.532, 589.953 126.960, 589.390 128.427 M 217.250 149.629 C 216.378 150.004, 216.004 152.942, 216.014 159.333 C 216.035 173.669, 214.713 172.559, 231.285 172.149 C 248.036 171.734, 250.660 172.601, 254.088 179.681 C 256.754 185.189, 256.080 189.701, 251.874 194.490 C 248.218 198.655, 247.584 198.779, 224.489 199.867 C 209.250 200.585, 205.845 201.039, 202.365 202.814 C 195.481 206.326, 189.532 215.213, 190.206 220.978 L 190.500 223.500 208 223.171 C 240.171 222.567, 251.003 221.604, 257.082 218.810 C 264.270 215.506, 268.570 211.733, 273.055 204.793 C 284.779 186.654, 277.850 162.458, 258.150 152.750 C 251.589 149.516, 251.473 149.499, 235.028 149.296 C 225.938 149.184, 217.938 149.334, 217.250 149.629 M 117.500 152.989 C 99.733 153.805, 97.299 154.266, 89.732 158.257 C 82.749 161.939, 77.660 167.362, 74.135 174.880 C 71.868 179.716, 71.500 181.825, 71.500 190 C 71.500 198.175, 71.868 200.284, 74.135 205.120 C 79.183 215.886, 87.367 222.598, 99.112 225.607 C 104.149 226.898, 108.012 227.069, 119.112 226.494 C 127.931 226.038, 133.012 225.372, 133.266 224.641 C 133.484 224.013, 133.461 218.870, 133.214 213.211 L 132.764 202.922 117.601 203.211 C 102.722 203.495, 102.379 203.453, 99.313 201 C 95.356 197.834, 94 194.974, 94 189.797 C 94 185.417, 97.249 180.008, 101.125 177.933 C 102.249 177.332, 111.920 176.426, 122.616 175.920 C 134.651 175.350, 143.291 174.486, 145.282 173.651 C 152.673 170.554, 158.440 163.207, 159.156 155.974 L 159.500 152.500 146 152.400 C 138.575 152.345, 125.750 152.610, 117.500 152.989 M 295.704 188.630 C 295.317 189.017, 295 197.808, 295 208.167 L 295 227 302 227 C 308.589 227, 309.001 226.868, 309.014 224.750 C 309.021 223.512, 309.317 221.418, 309.671 220.095 C 310.261 217.891, 310.459 218.058, 312.037 222.095 C 313.736 226.440, 313.824 226.500, 318.500 226.500 C 323.182 226.500, 323.263 226.444, 325.064 222 C 326.849 217.598, 326.889 217.569, 326.944 220.668 C 327.049 226.590, 327.579 227, 335.129 227 L 342.043 227 341.772 207.750 L 341.500 188.500 333.147 188.500 L 324.794 188.500 322.007 196.807 C 319.584 204.027, 318.105 207.355, 317.957 205.917 C 317.934 205.687, 316.677 201.675, 315.165 197 L 312.415 188.500 304.411 188.213 C 300.009 188.055, 296.091 188.242, 295.704 188.630 M 350.383 189.444 C 350.059 190.289, 349.953 196.497, 350.147 203.240 C 350.439 213.388, 350.854 216.102, 352.554 218.997 C 359.428 230.698, 378.572 230.698, 385.446 218.997 C 387.244 215.936, 387.500 213.817, 387.500 202 L 387.500 188.500 380.500 188.500 L 373.500 188.500 373.218 200.232 C 372.967 210.716, 372.727 212.075, 370.968 213.017 C 369.590 213.755, 368.410 213.755, 367.032 213.017 C 365.273 212.075, 365.033 210.716, 364.782 200.232 L 364.500 188.500 357.736 188.204 C 352.386 187.970, 350.849 188.229, 350.383 189.444 M 396 207.524 L 396 227.048 412.750 226.774 L 429.500 226.500 429.500 221 L 429.500 215.500 420.533 215.208 C 414.909 215.025, 411.280 214.466, 410.798 213.708 C 410.376 213.044, 410.024 206.988, 410.015 200.250 L 410 188 403 188 L 396 188 396 207.524 M 430.202 194.227 L 430.500 200.500 435.250 200.805 L 440 201.110 440.015 212.805 C 440.024 219.237, 440.402 225.086, 440.856 225.802 C 441.430 226.706, 443.640 227.011, 448.091 226.802 L 454.500 226.500 454.779 213.801 L 455.059 201.102 460.279 200.801 L 465.500 200.500 465.500 194.500 L 465.500 188.500 447.702 188.227 L 429.903 187.953 430.202 194.227 M 472.630 190.250 C 471.841 193.196, 471.821 223.369, 472.607 225.418 C 473.079 226.649, 474.744 227, 480.107 227 L 487 227 487 207.500 L 487 188 480.117 188 C 473.824 188, 473.182 188.193, 472.630 190.250 M 502.415 189.421 C 497.916 191.380, 495 195.575, 495 200.088 C 495 208.088, 499.236 212.172, 508.205 212.821 C 516.740 213.439, 515.252 214.710, 505.756 214.912 C 501.222 215.009, 497.144 215.456, 496.695 215.905 C 496.246 216.354, 496.019 218.921, 496.190 221.610 L 496.500 226.500 508.964 226.782 C 522.730 227.094, 525.918 226.329, 529.026 221.964 C 531.285 218.791, 531.696 210.464, 529.718 207.954 C 527.227 204.792, 523.478 203.040, 517.839 202.402 C 509.492 201.458, 511.685 200, 521.452 200 C 530.486 200, 531 199.677, 531 194 C 531 188.060, 530.858 187.997, 517.643 188.039 C 509.758 188.065, 504.418 188.549, 502.415 189.421 M 539.445 189.284 C 539.174 189.990, 539.075 198.652, 539.226 208.534 L 539.500 226.500 546.687 226.793 L 553.874 227.085 554.187 223.293 L 554.500 219.500 560.521 218.923 C 570.799 217.938, 575.419 213.023, 575.325 203.172 C 575.263 196.679, 573.146 193.401, 566.980 190.250 C 563.180 188.309, 561.024 188, 551.257 188 C 542.966 188, 539.805 188.343, 539.445 189.284 M 583.667 188.667 C 583.300 189.033, 583 197.808, 583 208.167 L 583 227 600 227 L 617 227 617 221.538 L 617 216.075 607.750 215.788 C 602.442 215.623, 598.500 215.074, 598.500 214.500 C 598.500 213.926, 602.442 213.377, 607.750 213.212 L 617 212.925 617 207.462 L 617 202 607.500 202 C 601.833 202, 598 201.596, 598 201 C 598 200.404, 601.833 200, 607.500 200 L 617 200 617 194 L 617 188 600.667 188 C 591.683 188, 584.033 188.300, 583.667 188.667 M 638.764 188.978 C 630.057 191.656, 624.714 198.720, 624.714 207.554 C 624.714 214.341, 627.430 219.617, 632.921 223.500 C 636.944 226.345, 637.758 226.517, 648.630 226.837 L 660.095 227.174 659.798 220.337 L 659.500 213.500 651.050 213.206 C 646.402 213.045, 642.015 212.427, 641.300 211.834 C 639.641 210.457, 639.605 204.373, 641.250 203.309 C 641.938 202.864, 646.325 202.275, 651 202 L 659.500 201.500 659.500 195 L 659.500 188.500 650.500 188.318 C 645.550 188.218, 640.269 188.515, 638.764 188.978 M 668.462 189.238 C 668.182 189.969, 668.075 198.652, 668.226 208.534 L 668.500 226.500 675.500 226.500 L 682.500 226.500 682.500 207.500 L 682.500 188.500 675.736 188.204 C 670.815 187.989, 668.834 188.270, 668.462 189.238 M 701.691 188.715 C 700.786 190.226, 690 224.290, 690 225.639 C 690 227.646, 702.616 227.527, 704.643 225.500 C 705.633 224.510, 708.123 224, 711.964 224 C 716.217 224, 717.941 224.404, 718.362 225.500 C 719.118 227.471, 733.005 227.709, 732.991 225.750 C 732.986 225.063, 730.320 216.400, 727.068 206.500 L 721.154 188.500 711.658 188.215 C 706.435 188.058, 701.950 188.283, 701.691 188.715 M 740 207.524 L 740 227.048 756.750 226.774 L 773.500 226.500 773.500 221 L 773.500 215.500 764.533 215.208 C 758.909 215.025, 755.280 214.466, 754.798 213.708 C 754.376 213.044, 754.024 206.988, 754.015 200.250 L 754 188 747 188 L 740 188 740 207.524 M 780.462 189.238 C 780.182 189.969, 780.075 198.652, 780.226 208.534 L 780.500 226.500 787.772 226.794 L 795.043 227.088 794.772 207.794 L 794.500 188.500 787.736 188.204 C 782.815 187.989, 780.834 188.270, 780.462 189.238 M 802 194.425 L 802 200.895 807.250 201.198 L 812.500 201.500 812.780 214.250 L 813.060 227 820 227 L 826.940 227 827.220 214.250 L 827.500 201.500 832.500 201 L 837.500 200.500 837.500 194.500 L 837.500 188.500 819.750 188.227 L 802 187.954 802 194.425 M 843 189.146 C 843 189.776, 845.700 194.660, 849 200 C 854.851 209.467, 855 209.884, 855 216.772 C 855 226.980, 855.016 227, 863.107 227 L 870 227 870 218.989 L 870 210.978 876.500 200.463 C 880.075 194.679, 883 189.509, 883 188.973 C 883 188.436, 879.889 188, 876.048 188 L 869.096 188 865.973 192.539 L 862.850 197.079 861.074 194.789 C 860.097 193.530, 858.765 191.488, 858.114 190.250 C 857.059 188.245, 856.170 188, 849.965 188 C 845.397 188, 843 188.394, 843 189.146 M 554 204 L 554 208.121 557.649 207.810 C 561.950 207.445, 564.082 204.946, 562.394 202.250 C 561.755 201.230, 559.775 200.371, 557.649 200.190 L 554 199.879 554 204 M 138.718 203.648 C 138.419 204.131, 138.566 210.595, 139.044 218.013 C 139.522 225.431, 139.933 236.413, 139.957 242.418 C 139.981 248.423, 140.497 256.298, 141.106 259.918 C 142.325 267.181, 147.158 276.909, 151.669 281.182 C 155.095 284.428, 164.619 289.538, 169.061 290.513 C 178.262 292.534, 191.333 290.089, 197.063 285.274 C 207.359 276.624, 212.712 268.214, 213.153 260 C 213.286 257.525, 213.306 249.537, 213.197 242.250 L 213 229 202.750 229.015 C 197.113 229.024, 191.924 229.396, 191.221 229.842 C 190.256 230.454, 190.010 234.204, 190.221 245.077 C 190.483 258.645, 190.364 259.717, 188.205 263.160 C 185.564 267.370, 179.223 270.427, 175.038 269.508 C 170.770 268.571, 165.189 263.343, 164.040 259.206 C 163.474 257.168, 163.009 249.110, 163.006 241.299 C 162.997 219.616, 160.854 212.748, 152.251 206.829 C 147.781 203.753, 139.811 201.879, 138.718 203.648 M 710.123 206.315 C 708.258 210.991, 708.672 213, 711.500 213 C 714.369 213, 714.666 211.204, 712.578 206.500 L 711.245 203.500 710.123 206.315 M 413.250 261.641 C 412.318 262.033, 412 266.581, 412 279.502 C 412 289.036, 412.273 297.548, 412.607 298.418 C 413.079 299.647, 414.740 300, 420.059 300 L 426.905 300 427.202 293.750 L 427.500 287.500 432.500 287.500 L 437.500 287.500 437.798 293.750 L 438.095 300 445.069 300 L 452.043 300 451.772 280.750 L 451.500 261.500 444.750 261.204 L 438 260.909 438 266.919 C 438 274.294, 437.250 274.883, 428.798 274.148 C 427.428 274.029, 427.037 272.781, 426.798 267.750 L 426.500 261.500 420.500 261.307 C 417.200 261.201, 413.938 261.351, 413.250 261.641 M 470.204 263.128 C 454.550 270.877, 456.849 294.702, 473.724 299.608 C 487.912 303.733, 500.678 295.928, 501.796 282.445 C 502.058 279.291, 501.709 275.644, 500.966 273.755 C 499.244 269.379, 494.254 264.162, 490.128 262.422 C 484.991 260.256, 475.313 260.599, 470.204 263.128 M 514.842 263.021 C 509.744 265.714, 507.347 271.860, 509.201 277.486 C 510.969 282.851, 515.757 286, 522.148 286 C 524.817 286, 527 286.450, 527 287 C 527 287.588, 523.500 288, 518.500 288 L 510 288 510 294 L 510 300 522.599 300 C 537.280 300, 540.897 298.845, 543.520 293.316 C 544.717 290.795, 545.009 288.544, 544.543 285.436 C 543.624 279.307, 539.833 276.321, 531.730 275.342 L 525.500 274.590 530 273.869 C 532.475 273.473, 536.638 273.115, 539.250 273.074 L 544 273 544 267 L 544 261 531.250 261.044 C 520.634 261.081, 517.888 261.412, 514.842 263.021 M 553.667 261.667 C 553.300 262.033, 553 270.808, 553 281.167 L 553 300 560 300 L 567 300 567 296.500 C 567 293.106, 567.117 293, 570.851 293 C 586.858 293, 595.456 276.527, 584.856 266.164 C 582.848 264.201, 579.974 262.731, 576.816 262.054 C 571.395 260.891, 554.721 260.612, 553.667 261.667 M 596.802 261.706 C 596.598 262.143, 596.446 270.825, 596.465 281 L 596.500 299.500 603.772 299.794 L 611.043 300.088 610.772 280.794 L 610.500 261.500 603.836 261.206 C 600.171 261.045, 597.005 261.270, 596.802 261.706 M 617.658 262.727 C 617.388 263.702, 617.471 266.525, 617.842 269 C 618.505 273.413, 618.585 273.495, 622.009 273.237 C 628.479 272.749, 628.566 272.965, 628.843 290.250 L 629 300 635.857 300 L 642.713 300 643.341 291.250 C 643.687 286.438, 643.733 281.089, 643.443 279.364 C 642.722 275.076, 645.122 272.775, 649.884 273.187 L 653.500 273.500 653.500 267.500 L 653.500 261.500 635.825 261.227 C 619.622 260.977, 618.108 261.102, 617.658 262.727 M 666.726 261.715 C 666.487 262.147, 664.821 267.225, 663.023 273 C 661.226 278.775, 658.685 286.684, 657.378 290.575 C 656.070 294.467, 655 298.179, 655 298.825 C 655 300.713, 668.631 300.405, 669.362 298.500 C 669.784 297.399, 671.522 297, 675.897 297 C 679.862 297, 682.359 297.502, 683.357 298.500 C 685.448 300.591, 698 300.640, 698 298.558 C 698 297.101, 692.721 279.976, 688.580 268 L 686.333 261.500 676.747 261.215 C 671.475 261.058, 666.966 261.283, 666.726 261.715 M 705.228 280.206 L 705.500 299.500 722 299.500 L 738.500 299.500 738.500 294 L 738.500 288.500 729.500 288 L 720.500 287.500 720 274.500 L 719.500 261.500 712.228 261.206 L 704.957 260.912 705.228 280.206 M 568 277 C 568 280.909, 568.080 281, 571.521 281 C 574.296 281, 575.282 280.476, 576.168 278.530 C 577.693 275.183, 575.802 273, 571.378 273 C 568.104 273, 568 273.123, 568 277 M 475.997 276.503 C 473.020 280.091, 475.939 287, 480.432 287 C 485.851 287, 488.862 281.037, 485.608 276.750 C 483.951 274.568, 477.736 274.408, 475.997 276.503 M 675.181 279.911 C 673.448 284.881, 673.691 286, 676.500 286 C 679.350 286, 679.656 284.251, 677.636 279.512 L 676.362 276.524 675.181 279.911 M 298.085 326.947 C 297.380 327.383, 296.990 329.164, 297.176 331.105 C 297.426 333.725, 297.956 334.500, 299.500 334.500 C 301.076 334.500, 301.564 333.732, 301.803 330.877 C 302.116 327.129, 300.521 325.442, 298.085 326.947 M 304.759 327.197 C 304.487 327.914, 304.481 329.962, 304.746 331.750 C 305.091 334.085, 305.753 335, 307.094 335 C 309.062 335, 310.453 331.605, 309.828 328.329 C 309.419 326.181, 305.480 325.301, 304.759 327.197 M 455.571 327.571 C 454.707 328.436, 454 329.529, 454 330 C 454 330.913, 456.807 334, 457.637 334 C 459.402 334, 462 331.618, 462 330 C 462 328.939, 461.130 327.605, 460.066 327.035 C 457.564 325.696, 457.431 325.712, 455.571 327.571 M 386.713 327.621 C 385.188 329.146, 386.033 332.876, 388.048 333.515 C 390.675 334.349, 393.182 332.276, 392.798 329.588 C 392.498 327.487, 388.227 326.106, 386.713 327.621 M 320.437 330.303 C 320.162 331.019, 320.064 337.432, 320.219 344.553 L 320.500 357.500 325 357.659 C 327.475 357.746, 331.088 357.928, 333.029 358.063 C 338.037 358.410, 340.575 356.680, 342.518 351.593 C 343.920 347.922, 344.008 346.553, 343.032 343.598 C 341.203 338.055, 337.503 335.678, 331.750 336.351 L 327 336.906 327 332.953 C 327 329.218, 326.833 329, 323.969 329 C 322.301 329, 320.712 329.586, 320.437 330.303 M 404 343.500 L 404 358.127 407.250 357.813 L 410.500 357.500 410.500 343.500 L 410.500 329.500 407.250 329.187 L 404 328.873 404 343.500 M 437 332.878 C 437 336.846, 435.720 338.974, 434.510 337.016 C 434.165 336.457, 432.149 336, 430.030 336 C 426.956 336, 425.655 336.622, 423.589 339.077 C 420.133 343.184, 419.470 346.364, 421.064 351.193 C 422.679 356.087, 425.727 358.249, 430.727 358.049 C 432.802 357.965, 436.525 357.808, 439 357.699 L 443.500 357.500 443.500 343.500 L 443.500 329.500 440.250 329.187 C 437.072 328.880, 437 328.962, 437 332.878 M 777.607 330.582 C 777.273 331.452, 777 333.493, 777 335.117 C 777 337.727, 776.775 337.950, 775.066 337.035 C 767.662 333.073, 760.223 339.412, 761.279 348.783 C 761.968 354.896, 765.387 358.269, 770.623 358.003 C 772.755 357.894, 776.638 357.863, 779.250 357.934 L 784 358.063 784 343.532 L 784 329 781.107 329 C 779.391 329, 777.967 329.644, 777.607 330.582 M 556.250 330.775 C 555.005 330.977, 554 331.854, 554 332.741 C 554 333.622, 553.266 335.154, 552.368 336.146 C 550.859 337.813, 550.859 338.136, 552.368 340.439 C 553.280 341.831, 554 344.960, 554 347.531 C 554 354.968, 556.217 357.959, 561.750 357.985 C 564.462 357.997, 565 357.626, 565 355.741 C 565 354.498, 564.100 352.919, 563 352.232 C 561.482 351.284, 561 349.900, 561 346.492 C 561 342.667, 561.297 342, 563 342 C 564.538 342, 565 341.333, 565 339.117 C 565 337.074, 564.417 336.081, 563 335.710 C 561.847 335.409, 561 334.346, 561 333.201 C 561 330.969, 559.569 330.238, 556.250 330.775 M 661 332.814 C 661 333.882, 660.325 335.315, 659.500 336 C 658.675 336.685, 658 338.035, 658 339 C 658 339.965, 658.675 341.315, 659.500 342 C 660.514 342.841, 661 345.101, 661 348.967 C 661 355.879, 662.971 358.317, 668.156 357.820 C 670.674 357.579, 671.575 356.976, 671.802 355.380 C 672.009 353.934, 671.453 353.090, 670.052 352.724 C 668.329 352.273, 668 351.389, 668 347.210 C 668 343.074, 668.338 342.145, 670 341.710 C 672.644 341.019, 672.686 336.992, 670.056 336.304 C 668.987 336.025, 667.975 334.829, 667.806 333.648 C 667.378 330.641, 661 329.860, 661 332.814 M 353.713 336.621 C 353.321 337.013, 353 340.676, 353 344.762 C 353 350.628, 353.428 352.792, 355.033 355.046 C 357.015 357.829, 357.287 357.899, 366.065 357.857 L 375.066 357.815 374.783 347.157 L 374.500 336.500 371.500 336.500 L 368.500 336.500 368 343.897 C 367.622 349.485, 367.072 351.562, 365.750 352.392 C 362.280 354.569, 360.548 352.010, 360 343.897 C 359.525 336.876, 359.371 336.485, 356.963 336.204 C 355.567 336.041, 354.104 336.229, 353.713 336.621 M 386.713 336.621 C 386.321 337.013, 386 342.012, 386 347.730 L 386 358.127 389.250 357.813 L 392.500 357.500 392.500 347 C 392.500 336.503, 392.499 336.500, 389.963 336.204 C 388.567 336.041, 387.104 336.229, 386.713 336.621 M 455 346.937 L 455 358 457.981 358 C 461.721 358, 462.191 356.398, 461.795 345 L 461.500 336.500 458.250 336.187 L 455 335.873 455 346.937 M 472.522 336.811 C 471.793 337.540, 471.866 354.487, 472.607 356.418 C 472.967 357.356, 474.391 358, 476.107 358 C 478.980 358, 479 357.957, 479 351.934 C 479 344.676, 480.212 342, 483.500 342 C 486.795 342, 488 344.677, 488 351.998 L 488 358.127 491.250 357.813 L 494.500 357.500 494.500 349.328 C 494.500 342.152, 494.217 340.856, 492.175 338.684 C 490.053 336.427, 489.118 336.215, 481.447 336.250 C 476.826 336.271, 472.810 336.524, 472.522 336.811 M 508.251 337.537 C 503.563 340.820, 503.283 352.231, 507.790 356.310 C 509.813 358.141, 514.145 358.647, 518.250 357.531 C 521.373 356.682, 521.957 358.310, 519.656 361.455 C 518.625 362.866, 517.637 363.124, 515.406 362.566 C 513.808 362.166, 510.813 361.603, 508.750 361.314 C 504.127 360.668, 503.888 362.042, 507.923 366.077 C 510.365 368.519, 511.659 369, 515.788 369 C 525.538 369, 528.309 363.930, 527.810 347 C 527.512 336.904, 527.411 336.487, 525.195 336.173 C 523.927 335.994, 522.352 336.275, 521.695 336.800 C 521.029 337.331, 519.614 337.396, 518.500 336.947 C 515.229 335.628, 510.595 335.895, 508.251 337.537 M 575.429 337.325 C 575.149 338.054, 575.051 342.891, 575.210 348.075 L 575.500 357.500 578.750 357.813 L 582 358.127 582.014 353.313 C 582.034 345.984, 582.861 343.978, 586.130 343.324 C 588.610 342.828, 589 342.291, 589 339.375 C 589 335.799, 588.132 335.324, 584.827 337.093 C 583.350 337.883, 582.483 337.883, 581.693 337.093 C 580.171 335.571, 576.043 335.725, 575.429 337.325 M 598.713 336.621 C 598.321 337.013, 598 340.431, 598 344.216 C 598 351.601, 599.766 356.503, 602.739 357.374 C 606.036 358.340, 619.486 357.759, 620.235 356.619 C 621.121 355.269, 621.250 339.814, 620.393 337.582 C 620.033 336.644, 618.609 336, 616.893 336 C 614.039 336, 614 336.078, 613.985 341.750 C 613.963 350.392, 611.075 354.646, 607 352.037 C 605.981 351.384, 605.340 348.742, 605 343.788 C 604.526 336.884, 604.366 336.484, 601.963 336.204 C 600.567 336.041, 599.104 336.229, 598.713 336.621 M 633.189 338.039 C 630.635 340.418, 630.344 344.201, 632.545 346.402 C 633.394 347.251, 635.869 348.480, 638.045 349.132 C 640.220 349.783, 642 350.920, 642 351.658 C 642 353.212, 638.417 353.484, 637.500 352 C 636.671 350.659, 631 350.716, 631 352.066 C 631 354.628, 633.295 356.987, 636.701 357.928 C 643.246 359.735, 649 356.962, 649 352 C 649 348.711, 646.419 346.231, 641.618 344.905 C 639.422 344.299, 638 343.289, 638 342.336 C 638 341.165, 638.571 340.947, 640.250 341.477 C 648.056 343.941, 650.765 342.674, 646.599 338.508 C 643.330 335.239, 636.452 334.999, 633.189 338.039 M 699.750 337.080 C 698.787 337.641, 697.325 339.405, 696.500 341 C 691.964 349.772, 699.321 361.110, 707.525 357.990 C 708.809 357.502, 711.511 357.371, 713.530 357.699 C 715.708 358.052, 717.470 357.858, 717.864 357.220 C 718.229 356.630, 718.439 353.301, 718.330 349.823 C 718.221 346.345, 718.103 341.813, 718.066 339.750 C 718.005 336.282, 717.779 336, 715.059 336 C 713.441 336, 711.839 336.451, 711.498 337.003 C 711.084 337.673, 710.257 337.673, 709.005 337.003 C 706.617 335.725, 702.011 335.763, 699.750 337.080 M 730 347 L 730 358 733 358 L 736 358 736 351.934 C 736 344.676, 737.212 342, 740.500 342 C 743.788 342, 745 344.676, 745 351.934 L 745 358 748 358 L 751 358 751 349.073 C 751 340.619, 750.860 340.035, 748.365 338.073 C 745.536 335.847, 740.087 335.313, 738.313 337.087 C 737.530 337.870, 737.038 337.870, 736.554 337.087 C 736.184 336.489, 734.559 336, 732.941 336 L 730 336 730 347 M 328.035 343.934 C 326.409 346.972, 326.814 349.756, 329.115 351.368 C 331.259 352.870, 333.897 352.527, 335.235 350.573 C 336.383 348.895, 336.126 344.526, 334.800 343.200 C 332.963 341.363, 329.192 341.772, 328.035 343.934 M 428.496 344.365 C 425.659 348.696, 429.667 354.319, 433.955 352.024 C 437.209 350.283, 437.941 346.084, 435.429 343.571 C 433.165 341.307, 430.284 341.637, 428.496 344.365 M 512.571 343.571 C 510.059 346.084, 510.791 350.283, 514.045 352.024 C 518.333 354.319, 522.341 348.696, 519.504 344.365 C 517.716 341.637, 514.835 341.307, 512.571 343.571 M 703.067 343.874 C 701.355 347.073, 701.824 349.838, 704.359 351.500 C 707.188 353.353, 709.357 352.707, 710.778 349.588 C 713.129 344.429, 705.712 338.933, 703.067 343.874 M 768.950 344.093 C 766.449 348.766, 770.839 354.367, 774.977 351.782 C 777.261 350.356, 777.760 345.160, 775.800 343.200 C 773.903 341.303, 770.184 341.788, 768.950 344.093 M 415 379.709 C 412.423 380.657, 410 383.236, 410 385.033 C 410 385.980, 409.325 387.315, 408.500 388 C 407.675 388.685, 407 390.035, 407 391 C 407 391.965, 407.675 393.315, 408.500 394 C 409.582 394.898, 410 397.273, 410 402.515 C 410 410.281, 410.719 411.399, 414.750 409.901 C 416.810 409.135, 417 408.429, 417 401.532 C 417 395.504, 417.299 394, 418.500 394 C 420.616 394, 420.420 389.351, 418.250 388.050 C 416.583 387.051, 416.583 386.937, 418.250 385.640 C 419.212 384.892, 420 383.092, 420 381.640 C 420 378.978, 418.531 378.411, 415 379.709 M 687.713 379.621 C 686.272 381.062, 687.020 384.872, 688.859 385.455 C 692.008 386.455, 694.140 385.017, 693.804 382.122 C 693.577 380.160, 692.861 379.426, 690.963 379.204 C 689.567 379.041, 688.104 379.229, 687.713 379.621 M 818.190 382.750 C 818.439 385.762, 818.943 386.563, 820.750 386.820 C 822.767 387.106, 823 386.718, 823 383.070 C 823 379.370, 822.767 379, 820.440 379 C 818.092 379, 817.905 379.312, 818.190 382.750 M 826 383 C 826 386.600, 826.250 387, 828.500 387 C 830.750 387, 831 386.600, 831 383 C 831 379.400, 830.750 379, 828.500 379 C 826.250 379, 826 379.400, 826 383 M 267 395.500 C 267 404.417, 267.385 410.048, 268 410.125 C 272.492 410.687, 272.485 410.697, 273.047 403.482 C 273.688 395.265, 274.286 394, 277.524 394 C 280.786 394, 282 396.695, 282 403.934 C 282 409.953, 282.022 410, 284.883 410 C 288.389 410, 288.769 408.864, 288.397 399.500 C 288.153 393.373, 287.792 392.219, 285.503 390.250 C 282.662 387.805, 280.488 387.484, 276.650 388.943 C 273.834 390.014, 273 388.865, 273 383.918 C 273 381.342, 272.648 381, 270 381 L 267 381 267 395.500 M 521 395.563 L 521 410.127 524.250 409.813 L 527.500 409.500 527.794 402.258 C 528.068 395.500, 528.252 394.975, 530.557 394.396 C 534.711 393.354, 536 395.435, 536 403.186 L 536 410.127 539.250 409.813 L 542.500 409.500 542.792 402.925 C 543.137 395.146, 542.040 391.728, 538.445 389.372 C 536.261 387.941, 535.123 387.821, 531.901 388.681 C 528.052 389.708, 528 389.685, 528 386.943 C 528 382.424, 527.016 381, 523.893 381 L 521 381 521 395.563 M 500 385.031 C 500 386.149, 499.325 387.322, 498.500 387.638 C 497.675 387.955, 497 389.323, 497 390.678 C 497 392.034, 497.675 393.818, 498.500 394.643 C 499.454 395.597, 500 398.062, 500 401.416 C 500 407.751, 501.920 410, 507.329 410 C 510.578 410, 511 409.713, 511 407.500 C 511 405.686, 510.464 405, 509.045 405 C 507.613 405, 506.920 404.089, 506.450 401.587 C 505.626 397.193, 506.557 394.349, 509.033 393.702 C 511.626 393.023, 511.605 389.327, 509.002 388.501 C 507.904 388.152, 506.730 386.772, 506.394 385.433 C 505.577 382.177, 500 381.826, 500 385.031 M 666.713 383.621 C 666.321 384.013, 666 385.110, 666 386.060 C 666 387.009, 665.325 388.045, 664.500 388.362 C 663.675 388.678, 663 389.865, 663 391 C 663 392.135, 663.675 393.322, 664.500 393.638 C 665.589 394.056, 666 395.767, 666 399.884 C 666 407.411, 667.806 410, 673.057 410 C 676.545 410, 677 409.725, 677 407.617 C 677 406.074, 676.294 405.049, 675 404.710 C 673.338 404.276, 673 403.346, 673 399.210 C 673 395.074, 673.338 394.145, 675 393.710 C 677.644 393.019, 677.686 388.992, 675.056 388.304 C 673.987 388.025, 672.975 386.829, 672.806 385.648 C 672.499 383.490, 668.255 382.079, 666.713 383.621 M 769.378 384.750 C 769.070 385.712, 768.319 387.540, 767.707 388.812 C 766.877 390.538, 766.900 391.611, 767.798 393.048 C 768.459 394.107, 769 396.983, 769 399.439 C 769 405.016, 770.713 408.912, 773.421 409.496 C 778.230 410.532, 779.292 410.409, 780.367 408.692 C 781.311 407.185, 781.041 406.546, 778.750 404.858 C 776.556 403.243, 776 402.034, 776 398.885 C 776 396.038, 776.488 394.757, 777.750 394.292 C 781.644 392.855, 782.062 389.354, 778.500 388 C 776.969 387.418, 776 386.264, 776 385.025 C 776 383.437, 775.346 383, 772.969 383 C 770.961 383, 769.748 383.591, 769.378 384.750 M 304.256 388.975 C 301.283 390.242, 298.007 395.758, 298.007 399.500 C 298.007 407.201, 305.785 412.546, 313.355 410.048 C 324.857 406.252, 323.005 389.467, 310.968 388.412 C 308.510 388.196, 305.490 388.450, 304.256 388.975 M 331.667 388.667 C 331.300 389.033, 331 396.458, 331 405.167 L 331 421 333.893 421 C 337.257 421, 338 419.629, 338 413.418 C 338 408.607, 338.136 408.467, 341.213 410.114 C 344.370 411.803, 350.143 409.720, 352.267 406.125 C 356.152 399.549, 353.082 389.669, 346.787 388.488 C 344.968 388.147, 342.262 388.330, 340.775 388.895 C 339.058 389.548, 337.854 389.572, 337.476 388.962 C 336.801 387.868, 332.675 387.659, 331.667 388.667 M 368.500 389.103 C 364.708 391.298, 363.045 394.354, 363.022 399.173 C 362.981 407.844, 370.449 412.928, 378.367 409.620 C 381.790 408.190, 384.529 404.863, 383.298 403.631 C 382.269 402.602, 377.488 402.912, 376.315 404.085 C 374.737 405.663, 370.575 404.786, 370.196 402.795 C 369.917 401.335, 370.921 401.048, 377.185 400.795 L 384.500 400.500 384.337 397.110 C 384.108 392.333, 380.381 388.890, 374.868 388.364 C 372.465 388.134, 369.600 388.467, 368.500 389.103 M 433.763 389.509 C 425.354 394.245, 426.665 407.321, 435.824 410.065 C 443.856 412.472, 450.988 407.160, 450.996 398.766 C 451.004 390.775, 441.029 385.416, 433.763 389.509 M 461.430 389.321 C 461.151 390.048, 461.053 395.103, 461.212 400.554 C 461.497 410.378, 461.522 410.466, 464 410.483 C 467.417 410.506, 467.967 409.426, 467.985 402.663 C 467.999 397.101, 468.141 396.773, 471.002 395.693 C 475.596 393.959, 476.335 389, 472 389 C 470.965 389, 469.804 389.508, 469.421 390.128 C 468.944 390.900, 468.435 390.742, 467.812 389.628 C 466.719 387.676, 462.146 387.456, 461.430 389.321 M 558.256 389.029 C 555.366 390.191, 552.009 395.707, 552.004 399.300 C 551.994 406.269, 558.669 411.847, 565.486 410.569 C 569.105 409.890, 573 406.667, 573 404.352 C 573 403.090, 572.263 402.907, 569.250 403.421 C 561.910 404.672, 560.569 404.573, 560.204 402.750 C 559.897 401.216, 560.720 401, 566.868 401 C 570.726 401, 574.166 400.541, 574.512 399.980 C 574.859 399.420, 574.614 397.360, 573.968 395.403 C 571.998 389.432, 564.658 386.455, 558.256 389.029 M 599.667 388.667 C 599.300 389.033, 599 396.487, 599 405.230 L 599 421.127 602.250 420.813 C 605.460 420.504, 605.504 420.429, 605.799 414.793 L 606.097 409.086 608.722 410.085 C 614.851 412.415, 620.901 408.062, 621.727 400.728 C 622.677 392.297, 616.792 386.501, 609.541 388.726 C 607.636 389.311, 605.630 389.380, 604.855 388.889 C 603.228 387.858, 600.588 387.745, 599.667 388.667 M 634.707 390.016 C 630.976 392.951, 629.591 397.901, 631.096 402.924 C 632.706 408.300, 635.171 410.378, 639.773 410.239 C 641.823 410.178, 645.878 410.106, 648.784 410.080 L 654.068 410.034 653.784 399.267 C 653.510 388.883, 653.418 388.488, 651.195 388.173 C 649.927 387.994, 648.268 388.362, 647.509 388.993 C 646.512 389.820, 645.572 389.841, 644.130 389.069 C 641.073 387.433, 637.539 387.788, 634.707 390.016 M 687.713 388.621 C 687.321 389.013, 687 393.983, 687 399.667 L 687 410 690.534 410 L 694.068 410 693.784 399.250 C 693.502 388.571, 693.483 388.498, 690.963 388.204 C 689.567 388.041, 688.104 388.229, 687.713 388.621 M 710 389.057 C 705.995 390.710, 704.047 394.008, 704.022 399.173 C 703.981 407.907, 711.339 412.974, 719.258 409.666 C 722.771 408.198, 725.544 404.878, 724.298 403.631 C 723.269 402.602, 718.488 402.912, 717.315 404.085 C 715.737 405.663, 711.575 404.786, 711.196 402.795 C 710.917 401.335, 711.921 401.048, 718.185 400.795 L 725.500 400.500 725.217 397 C 725.054 394.973, 723.960 392.522, 722.620 391.175 C 719.976 388.520, 713.808 387.484, 710 389.057 M 736.084 389.399 C 735.334 390.302, 735.025 394.114, 735.211 400.149 L 735.500 409.500 738.750 409.813 L 742 410.127 742 404.628 C 742 397.122, 743.304 394, 746.440 394 C 749.793 394, 751 396.629, 751 403.934 C 751 407.270, 751.450 410.056, 752 410.125 C 752.550 410.194, 753.563 410.334, 754.250 410.436 C 757.017 410.849, 758 408.668, 757.996 402.128 C 757.990 391.458, 753.092 386.017, 745.928 388.721 C 744.367 389.310, 742.632 389.382, 741.855 388.889 C 739.832 387.608, 737.391 387.823, 736.084 389.399 M 794.242 389.034 C 793 389.533, 791.465 391.080, 790.831 392.471 C 789.034 396.417, 791.026 399.634, 796.204 401.147 C 800.824 402.497, 802.459 403.941, 801.010 405.390 C 800.467 405.933, 799.092 405.635, 797.587 404.649 C 794.391 402.555, 790 402.469, 790 404.500 C 790 409.167, 798.322 412.146, 804.338 409.632 C 807.559 408.286, 808 407.683, 808 404.624 C 808 400.963, 804.443 397.016, 801.115 396.985 C 798.298 396.958, 796.359 395.241, 797.668 393.932 C 798.537 393.063, 799.551 393.213, 801.798 394.540 C 807.318 397.801, 810.355 393.997, 805.365 390.073 C 802.612 387.907, 798.095 387.486, 794.242 389.034 M 306.571 395.571 C 304.580 397.563, 304.575 399.948, 306.557 402.777 C 308.449 405.479, 310.152 405.594, 312.345 403.171 C 316.789 398.260, 311.217 390.926, 306.571 395.571 M 339.571 395.571 C 336.621 398.522, 338.576 405, 342.416 405 C 343.117 405, 344.435 404.177, 345.345 403.171 C 349.789 398.260, 344.217 390.926, 339.571 395.571 M 370.713 394.621 C 369.163 396.170, 370.165 397, 373.583 397 C 376.002 397, 377.033 396.594, 376.756 395.750 C 376.297 394.352, 371.818 393.515, 370.713 394.621 M 436.571 395.571 C 435.707 396.436, 435 398.166, 435 399.416 C 435 401.695, 437.767 405, 439.674 405 C 441.358 405, 444 401.484, 444 399.243 C 444 396.867, 441.539 394, 439.500 394 C 438.754 394, 437.436 394.707, 436.571 395.571 M 560.713 394.621 C 559.163 396.170, 560.165 397, 563.583 397 C 566.002 397, 567.033 396.594, 566.756 395.750 C 566.297 394.352, 561.818 393.515, 560.713 394.621 M 607.200 395.200 C 606.540 395.860, 606 397.895, 606 399.721 C 606 402.334, 606.559 403.298, 608.617 404.235 C 610.928 405.288, 611.456 405.155, 613.117 403.103 C 615.412 400.269, 615.520 397.663, 613.429 395.571 C 611.557 393.700, 608.861 393.539, 607.200 395.200 M 638.378 396.545 C 636.959 398.711, 636.905 399.454, 638.015 401.529 C 639.774 404.815, 642.680 405.600, 645.072 403.435 C 647.502 401.236, 647.546 397.804, 645.171 395.655 C 642.574 393.305, 640.307 393.602, 638.378 396.545 M 711.713 394.621 C 710.163 396.170, 711.165 397, 714.583 397 C 717.002 397, 718.033 396.594, 717.756 395.750 C 717.297 394.352, 712.818 393.515, 711.713 394.621" stroke="none" fill="#f8f9fa" fill-rule="evenodd"/></svg>