<svg xmlns="http://www.w3.org/2000/svg" width="50" height="56" viewBox="0 0 50 56" version="1.1"><path d="M 22.235 11.037 C 19.695 12.057, 18 15.670, 18 20.065 C 18 22.529, 18.401 23, 20.500 23 C 22.695 23, 23 22.569, 23 19.469 C 23 17.114, 23.548 15.727, 24.645 15.306 C 26.958 14.418, 29 17.612, 29 22.120 C 29 25.442, 31.484 29.849, 32.682 28.652 C 32.925 28.408, 33.125 25.125, 33.125 21.356 C 33.125 15.205, 32.857 14.274, 30.507 12.252 C 27.716 9.851, 25.863 9.579, 22.235 11.037 M 11.856 24.722 C 4.959 25.453, 2.203 31.711, 6.520 36.842 C 8.669 39.395, 9.927 40, 13.089 40 C 16.594 40, 17 39.741, 17 37.500 C 17 35.413, 16.525 35, 14.122 35 C 12.540 35, 10.685 34.325, 10 33.500 C 8.041 31.139, 10.290 29.411, 15.682 29.131 C 20.672 28.873, 23 27.679, 23 25.378 C 23 23.990, 20.279 23.830, 11.856 24.722 M 35 26.500 C 35 28.675, 35.440 29, 38.393 29 C 40.682 29, 42.001 29.561, 42.447 30.724 C 43.387 33.173, 40.423 35, 35.509 35 C 31.369 35, 29 36.333, 29 38.662 C 29 39.613, 30.665 39.777, 35.750 39.325 C 39.462 38.995, 43.309 38.310, 44.298 37.802 C 47.080 36.373, 48.303 32.145, 46.908 28.778 C 45.459 25.279, 43.225 24, 38.566 24 C 35.429 24, 35 24.301, 35 26.500 M 18.381 38.750 C 18.680 40.813, 18.941 43.962, 18.962 45.750 C 19.012 50.057, 22.042 53, 26.427 53 C 30.705 53, 34 49.243, 34 44.365 C 34 41.442, 33.671 41, 31.500 41 C 29.325 41, 29 41.440, 29 44.393 C 29 46.682, 28.439 48.001, 27.276 48.447 C 24.827 49.387, 23 46.423, 23 41.509 C 23 37.299, 21.664 35, 19.218 35 C 18.192 35, 17.977 35.964, 18.381 38.750" stroke="none" fill="#4d6694" fill-rule="evenodd"/><path d="M -0 28.017 L -0 56.034 25.250 55.767 L 50.500 55.500 50.766 27.750 L 51.032 -0 25.516 -0 L 0 0 -0 28.017 M 0.440 28.500 C 0.440 43.900, 0.579 50.060, 0.748 42.189 C 0.917 34.319, 0.917 21.719, 0.747 14.189 C 0.578 6.660, 0.439 13.100, 0.440 28.500 M 22.235 11.037 C 19.695 12.057, 18 15.670, 18 20.065 C 18 22.529, 18.401 23, 20.500 23 C 22.695 23, 23 22.569, 23 19.469 C 23 17.114, 23.548 15.727, 24.645 15.306 C 26.958 14.418, 29 17.612, 29 22.120 C 29 25.442, 31.484 29.849, 32.682 28.652 C 32.925 28.408, 33.125 25.125, 33.125 21.356 C 33.125 15.205, 32.857 14.274, 30.507 12.252 C 27.716 9.851, 25.863 9.579, 22.235 11.037 M 11.856 24.722 C 4.959 25.453, 2.203 31.711, 6.520 36.842 C 8.669 39.395, 9.927 40, 13.089 40 C 16.594 40, 17 39.741, 17 37.500 C 17 35.413, 16.525 35, 14.122 35 C 12.540 35, 10.685 34.325, 10 33.500 C 8.041 31.139, 10.290 29.411, 15.682 29.131 C 20.672 28.873, 23 27.679, 23 25.378 C 23 23.990, 20.279 23.830, 11.856 24.722 M 35 26.500 C 35 28.675, 35.440 29, 38.393 29 C 40.682 29, 42.001 29.561, 42.447 30.724 C 43.387 33.173, 40.423 35, 35.509 35 C 31.369 35, 29 36.333, 29 38.662 C 29 39.613, 30.665 39.777, 35.750 39.325 C 39.462 38.995, 43.309 38.310, 44.298 37.802 C 47.080 36.373, 48.303 32.145, 46.908 28.778 C 45.459 25.279, 43.225 24, 38.566 24 C 35.429 24, 35 24.301, 35 26.500 M 18.381 38.750 C 18.680 40.813, 18.941 43.962, 18.962 45.750 C 19.012 50.057, 22.042 53, 26.427 53 C 30.705 53, 34 49.243, 34 44.365 C 34 41.442, 33.671 41, 31.500 41 C 29.325 41, 29 41.440, 29 44.393 C 29 46.682, 28.439 48.001, 27.276 48.447 C 24.827 49.387, 23 46.423, 23 41.509 C 23 37.299, 21.664 35, 19.218 35 C 18.192 35, 17.977 35.964, 18.381 38.750" stroke="none" fill="#f5f6f8" fill-rule="evenodd"/></svg>